<?xml version="1.0" encoding="utf-8"?>
<!-- Generator: Adobe Illustrator 25.4.1, SVG Export Plug-In . SVG Version: 6.00 Build 0)  -->
<svg version="1.1" id="Layer_1" xmlns="http://www.w3.org/2000/svg" xmlns:xlink="http://www.w3.org/1999/xlink" x="0px" y="0px"
	 viewBox="0 0 595 842" style="enable-background:new 0 0 595 842;" xml:space="preserve">
<style type="text/css">
	.st0{fill-rule:evenodd;clip-rule:evenodd;fill:#000003;}
</style>
<path class="st0" d="M272.1,351.2c-2.4-0.5-4.9-1-7.4-1.3c-3-1.7-6.6-0.8-8.3,2.6c2.9-0.8,4.9-0.3,6,1.3c2.7,2.3,6,3.9,9.7,4.8
	c0.4-2.1,0.4-4.3,0.1-6.4L272.1,351.2L272.1,351.2z M288.8,359.2c-1.3-0.6-2.5-0.9-4.4-0.2c-0.7,0.1-1.4,0.2-2,0.2
	c0.1-1.6,0.1-3.2-0.1-5l0-0.1c1.9,0.6,3.7,1.3,5.5,2.1c1.7,0.9,3.3,1.9,4.7,3.1c2.4,1.3,3.1-0.3,2-1.4c-1.2-0.8-2.7-1.5-4.5-2
	c-8.2-3.5-16.3-6-25-7.2c-5.2-2.3-8.6-0.2-10.7,5.2c-0.1,0.2-0.4,0.1-0.4,0c-2.3-12.2,2.8-18.2,15.6-18.3c2.5-3.5,6-4.2,10.5-2
	c-0.5,9.7,0.7,16,3.8,17.1c10.8,3.5,15,6.5,13,11.8C294,365.5,291.3,364.4,288.8,359.2L288.8,359.2z M477.7,502.7L461.8,524
	l25.4-28.8l-1.9-0.5l5.5-3.6l6-6.8l-2.4-3.8l-15.5,20.8l-0.6,2.1L477.7,502.7L477.7,502.7z M484.5,519.1l-21.3,15.8l28.9-25.3
	l0.5,1.9l3.6-5.5l6.8-5.9l3.8,2.4L485.9,518l-2.1,0.6L484.5,519.1L484.5,519.1z M517.6,495.4l13.1-9.8l-2.8-2.2l21.6-8.3l-14,17.8
	l-1.7-3.6L519.3,500l18-5.7l-15.2,16.4l-1.3-3.8l-17.1,10.7l20.4-4.3l-17.4,15.5l-0.8-4.4l-53.9,27.1c-3.3-1.1-7.9-4.6-10.8-7.3
	l23.4-54.4l-4.6-0.3l14.4-18.2l-1.2,7l14-16.1l-3.4,20.8l12-18.4l-4.8-0.8l17.4-14.7l-5.8,17l12.8-17.2l-3.7-1.3l18.8-14.3
	l-8.6,21.3l-1.7-3.1l-18.4,23.9l7.1-6l-0.7,1.6l16.8-9.6l-6.2,13.9l12-11.6l-3.2-1.3l20.1-11.3l-11.8,19.2l-1.6-2.8l-28,25.8
	l18.4-8.1L517.6,495.4L517.6,495.4z M122.3,563.9c-2.9,0.4-5,2.9-4.7,5.6c0.3,2.7,3,4.7,5.9,4.3s5-2.9,4.7-5.6
	C127.9,565.5,125.2,563.5,122.3,563.9L122.3,563.9z M45.5,466c0.1-0.1,0.1-0.2,0.2-0.2c12.1,6.9,27.4,5.1,35.2,18.1
	c0.6,3.4,1.1,6.9,1.6,10.5c-8.5-4-15.5-1.1-22.6-5.3C52.4,485,47.6,477.4,45.5,466L45.5,466z M92,500c-1.4-6.4-1.8-11.3-1.3-14.6
	c8.3-3.6,9.3-8.7,3-15.2c7.3-2.7,12.1-5.9,14.5-9.5C112.8,489.9,102.6,488.8,92,500L92,500z M89.7,471.5c-3.2,0.4-5.4,3.3-5.1,6.5
	c0.4,3.2,3.3,5.4,6.5,5.1c3.2-0.4,5.4-3.3,5.1-6.5S92.9,471.1,89.7,471.5L89.7,471.5z M59.4,506.2c-0.2,0.2-0.2,0.4-0.1,0.7
	c4.3,5.3,7.5,9.1,9.3,12.4c8.3-1.6,14.2-2,17.7-1.3c-0.8-3.3,0.7-6,4.4-8C81.2,504.6,70.6,503.3,59.4,506.2L59.4,506.2z M81.5,496.9
	c4.7,0.8,5.8,3.9,4.1,7.8c-4.8,1-8.3-0.8-9.2-3.6C76.6,498.3,78.4,496.4,81.5,496.9L81.5,496.9z M99.9,495.3
	c-3.2,0.4-5.5,3.3-5.1,6.5s3.3,5.5,6.5,5.1c3.2-0.4,5.5-3.3,5.1-6.5C106,497.2,103.1,494.9,99.9,495.3L99.9,495.3z M91.8,511.6
	c2.7-0.3,5.1,1.6,5.4,4.3s-1.6,5.2-4.2,5.5c-2.7,0.3-5.1-1.6-5.4-4.3C87.2,514.4,89.1,511.9,91.8,511.6L91.8,511.6z M102.7,529.3
	c2.6-0.3,4.9,1.3,5.2,3.5c0.3,2.3-1.6,4.4-4.2,4.7c-2.6,0.3-4.9-1.3-5.2-3.5C98.2,531.7,100.1,529.6,102.7,529.3L102.7,529.3z
	 M85.6,535.4c2.8-0.3,5.3,1.6,5.7,4.3c0.3,2.7-1.7,5.2-4.4,5.6c-2.8,0.3-5.3-1.6-5.7-4.3C80.8,538.2,82.8,535.7,85.6,535.4
	L85.6,535.4z M105.1,519.6c1.2,5.3,6.3,6.3,9.5,2.4c-1.1-1.7-1.9-4.5-2.2-8.6C107.6,512.3,104.9,513.8,105.1,519.6L105.1,519.6z
	 M138.2,538.2c2.4-0.3,4.5,1.5,4.8,4s-1.4,4.7-3.7,5c-2.4,0.3-4.5-1.5-4.8-4C134.1,540.8,135.8,538.5,138.2,538.2L138.2,538.2z
	 M131.4,537.1c-4.5,0.9-7.7-0.4-8.3-4.1c-0.6-3.8,1.9-5.9,6.1-6.3C129.7,531.3,130.4,534.8,131.4,537.1L131.4,537.1z M144.4,491.4
	c-11.7,19-17.5,32.6-10.3,47.3c3.3-2.4,6.3-2.3,9.2,0.4c6.3-6.8,7.7-15.1,1.7-47.6C144.9,491.3,144.7,491.3,144.4,491.4L144.4,491.4
	z M168.5,499.8c0.3,0,0.5,0.2,0.4,0.5c-4.2,13.5,0.4,31.9-24.2,42c-0.1-0.9-0.1-1.5-0.3-2.4c5.8-6.6,7.4-15.1,5.1-24.8
	C155.6,507.5,161.8,502.3,168.5,499.8L168.5,499.8z M137.7,552.5c-3.4-3-7.5-4.3-12.1-3.9c-8.8-5.2-15.7,5.8-7.8,13.5
	c-9.3,11-20.2,14-32.8,8.9c10.7-7.9,11.4-21.6,30.6-24.8c0.2-0.4,0.1-0.7-0.3-0.9c-8.7,1.3-16.3,6-19.7,11.6
	c-4.4,2-12.7-3.1-22.1-3.9c3.7-2.9,7.5-5,11.3-6.3c4.1,0,6.9-1.8,8.3-5.5c6.2-4.1,15.6-3.7,28.4,1c-4.5-3.5-8.4-6.4-12.6-10
	c-2.3-5.5-8.9-5.2-11.4-0.1c-3.2,2.7-5.7,3.7-7.7,2.9c-2.6-1.6-5.7-1.3-9.2,0.7c-6.5-6.3-12.9-8.2-19.4-5.6
	c1.5-8.5,9.9-12.1,25.1-11c3.6,3.9,7,4.6,10.4,2c2.7,1.2,4.8,2.5,6.3,4c-1.4-9-7.1-15.5-17-19.5c0.3-0.6,1-1.6,2.1-3.2
	c-1.2-2.9-2.7-5.2-4.6-6.9c-1.2-8-2.4-14.9-3.4-20.7c-23.7-10.2-16.5-24.8-17-54.2c0.2-0.2,0.4-0.3,0.7-0.2
	c8.6,16,17.6,18.9,17.5,29.1c0.5,0.3,1,0.2,1.4-0.1c-1.6-6.3,2.7-13.8,13.5-22.3c0.3-0.1,0.5,0.1,0.7,0.4
	c-2.8,8.1,2.3,17.3-0.5,28.3c-2.5,10.1-11.5,13.3-13.3,20c0.5,6.6,1.3,12.5,2.3,17.8c0.6,0.7,1.1,0.7,1.3-0.2
	c-0.4-4.1-0.7-7.6-1.1-10.3c1.5,1,2.7,1.5,3.6,1.4c-0.5,3.6,0,9.4,1.5,17.4c0.8,2.9,3.2,5.8,7.2,8.7c-0.1-0.8-0.2-1.9-0.3-3.4
	c1.1,0.9,2.3,1.1,3.7,0.7c-0.3,8.8,3.1,16.4,10.2,22.8c-0.4-2.5-0.7-4.4-1-5.7c1.8-0.1,3.1-0.2,4-0.3c0.1,3.3,0.4,6.2,0.9,8.7
	c2.2,1.5,3.6,2.5,4.1,2.9c-0.2-2.7-0.4-5.3-0.7-8c-9.6-14.3-8.1-28.5,4.5-42.7c2.5,18.2,11.3,28.9-1.4,43.8
	c-0.4,3.7-0.3,7.2,0.2,10.4c2,1.4,3.5,1.9,4.5,1.4c0.4-0.4,0.3-1.5-0.3-3.4c1.3,0.2,2.2,0.3,2.6,0.1c0.2,1.9,0.4,3.7,0.7,5.4
	c7.1,4.9,11.2,6.1,12.5,3.6c0.1,1.5,0.6,2.4,1.4,2.7C141.9,551.3,138.7,550.9,137.7,552.5L137.7,552.5z M126.4,558.2
	c-1.1-2.4-1.1-4.5,0.2-6.4c-1.1-2.1-3.4-3.5-5.8-3.2c-3.2,0.4-5.5,3.4-5.1,6.8s3.3,5.8,6.6,5.4C124,560.6,125.5,559.6,126.4,558.2
	L126.4,558.2z M130.5,550.6c-2.4,0.3-4.2,2.4-3.9,4.8c0.3,2.4,2.5,4,4.9,3.7c2.4-0.3,4.2-2.4,3.9-4.8
	C135.1,552,132.9,550.3,130.5,550.6L130.5,550.6z M127,559.2c1.6,0.7,3.6,0.8,5.9,0.5c-0.9,16.6-8.5,27.4-22.8,32.5
	c0.8-8.4,3-15.5,6.4-21.4c0.9,2.8,3.9,4.6,7.1,4.2c3.7-0.4,6.3-3.6,5.9-7c-0.4-3.2-3.2-5.5-6.5-5.5
	C124.3,561.4,125.6,560.3,127,559.2L127,559.2z M122.7,586.5c5.1-4.4,8.6-9.8,10.3-16.3c1.7,3,3.5,5.2,5.3,6.7
	c2.3,10.6-1,20-9.9,28.1C124.3,600.3,122.4,594.2,122.7,586.5L122.7,586.5z M293.1,347.2c0.6,0.9,1.7,1.6,2.9,1.7
	c1.7,0.1,3.2-0.8,3.8-2.3c0.3-0.8,0.2-1.7,0.3-2.5c0.6-1.1,1.5-1.5,2.7-1.3l7.5-0.1c0.1,0,0.1-0.1,0.1-0.1c-6.4-1-19.7-10-23.5-1.4
	c2-0.5,3.5,0,4.4,0.7c0.7-1.1,2.1-1.8,3.6-1.7l0,0c2.1,0.2,3.8,1.9,3.6,3.9c-0.1,2-2,3.5-4.1,3.3
	C293.9,347.5,293.5,347.4,293.1,347.2L293.1,347.2z M303.8,343.1l-0.2,0C303.6,343.1,303.7,343.1,303.8,343.1L303.8,343.1
	L303.8,343.1z M290.2,364.6c-0.1-0.3,0.1-0.4,0.2-0.2c0.9,0.8,2,1.4,3.2,1.4c1.7,0.1,3.2-1,4.4-2.2l0.2-0.2l0.1-0.3
	c0.6-1.5,0.8-3.1,0.4-4.6c-0.6-2.4-2.6-4.1-4.7-5.3c-2.9-1.7-6.5-3-9.7-4c-1.3-0.4-2-3-2.2-4.1c-0.8-3.5-0.7-7.8-0.5-11.4l0.1-1.1
	l-0.1-0.1c1.6-4.5,8.3-2.8,8.3-2.8c4.4,1.4,10.5,1.7,10.5,1.7c11.6-0.8,21.6,6.1,21.6,6.1c1.9,3,8.6,3.3,8.6,3.3
	c-1.1,3.6-4.1,5.5-4.1,5.5c5.8,4.1,5.8,21.3,5.8,21.3c-1.1,6.1,0.6,11.3,0.6,11.3c-1.9,0.6-5.3-4.1-5.3-4.1
	c3.6,6.6,0.8,19.4,0.8,19.4c-0.5,6.3,2.8,10.8,5.6,14.7l-63.6,0c-2.8-5.3-1.4-9.9,0.9-13.3l0.3,0.3l0.4-1.3c2.3-3,5.1-4.8,5.1-4.8
	c9.1-7.2,13.7-17.7,13.7-17.7C291.4,368.8,290.9,366.4,290.2,364.6L290.2,364.6z M223,567.2c1.3-0.7,2.7-1,4-0.7
	c-1,0.8-2.6,6.9-1.6,6.1c1.6-1.9,5.8-5.9,12-5.7c0,0,8.5-0.7,11.8-6.9c-0.9-0.3-4-1.7-4.9-2.1c-3.8-2.7-6.3-5.4-7.6-8.1
	c-0.9-1.7-2-4-2.3-5.9c-0.6-4-0.9-8.8-0.9-12.9c0-1,0-2.3,0-4v-7.6c-1.6,0.8-3.6-0.5-5-1.5c0,0-10,1.7-7.5,9.7
	c-2.1-0.4-3.5-0.5-4.4-0.3c0,0-9.6,3-8.5,13.4c-0.9,0.3-1.7,0.6-2.5,0.7c0,0-5.8,1.7-5.8,5.5c0,0-0.3,4.7-1.9,6.4
	c0.7,1.2,2.1,1.7,4.1,1.7c0,0-8,5-8.6,11.3c0,0,0.6,1.4-1.4,2.8c0,0,5.5,0.3,9.4-5.5c0.1,1.3,0.8,3.5,1.1,5c1.3-0.4,4.9-1.3,6.1-0.8
	c0,0-0.8,3.9-0.8,5.5C207.9,573.3,218.6,572,223,567.2L223,567.2z M369.5,567.2c-1.3-0.7-2.7-1-4-0.7c1,0.8,2.6,6.9,1.6,6.1
	c-1.6-1.9-5.8-5.9-12-5.7c0,0-8.5-0.7-11.8-6.9c0.9-0.3,4-1.7,4.9-2.1c3.8-2.7,6.3-5.4,7.6-8.1c0.9-1.7,2-4,2.3-5.9
	c0.6-4,0.9-8.8,0.9-12.9c0-1,0-2.3,0-4v-7.6c1.6,0.8,3.6-0.5,5-1.5c0,0,10,1.7,7.5,9.7c2.1-0.4,3.5-0.5,4.4-0.3c0,0,9.6,3,8.5,13.4
	c0.9,0.3,1.7,0.6,2.5,0.7c0,0,5.8,1.7,5.8,5.5c0,0,0.3,4.7,1.9,6.4c-0.7,1.2-2.1,1.7-4.1,1.7c0,0,8,5,8.6,11.3c0,0-0.6,1.4,1.4,2.8
	c0,0-5.5,0.3-9.4-5.5c-0.1,1.3-0.8,3.5-1.1,5c-1.3-0.4-4.9-1.3-6.1-0.8c0,0,0.8,3.9,0.8,5.5C384.6,573.3,374,572,369.5,567.2
	L369.5,567.2z M160.8,345.6c-6.4,1.7-14.7,8-17.6,2.3c2.2-4.4,6.5-9.3,6.5-9.3c5.8-5.3,19.6-6.3,19.6-6.3c-0.4,3.8-1.5,5.6,0.2,10.2
	L160.8,345.6L160.8,345.6z M179.4,345.4c0,0-4.9-0.4-7-1.7c-6.9,3.2-25.6,9.3-27.4,14.8c0,0,4.5,7,15.6,3.7l17-6.4
	C171.6,355.2,177,348.2,179.4,345.4L179.4,345.4z M174.5,360.1l4.1-1.7c-2.8,3.8-1.9,10.9,2.8,13.5c1.1,0.6-0.9,1.7-1.8,2.6
	c-4.7,2.2-23.8,4.2-29.3,4c-0.4-6,3.8-10.5,3.8-10.5C155.6,366.1,174.5,360.1,174.5,360.1L174.5,360.1z M205.4,434.9
	c-0.2-0.5-0.3-0.7-0.3-1.3c-4.3,0.3-8.3,0.7-11.9-1c-0.7,3.6-26,17.5-22.9,22.3C177.1,462.5,201.1,440.7,205.4,434.9L205.4,434.9z
	 M219.1,442.5c-0.4,1.7,0,4.1,1.3,7.2l-9.6,15.5c-2.5,4.6-5.4,5.6-5.9,6.1c-4.4,3.9-10.5-1.6-14.6-5.5c6.1-2.7,18.5-15,23.6-22.1
	C215.4,443.8,217.1,443.5,219.1,442.5L219.1,442.5z M187.6,420.8l-14.7,8.4c-4.5,2.7-11.3,5.4-12,5.4c-5.8,0.4-8.2-7-8.2-7
	c-0.3-1.7,0.8-4.7,0.8-4.7c1.7-4.4,11-6.1,11-6.1c3.9-0.5,12.4-3.7,12.4-3.7C177.1,414.5,183.7,421.3,187.6,420.8L187.6,420.8z
	 M210.1,443.8c-2.6,3.6-13.1,13.6-16.9,16.4c-13.9,7.3-17.8,0.3-15.6-1.2c8-2.1,23.3-13.8,28.4-21.3
	C206.2,441.3,207.5,443.4,210.1,443.8L210.1,443.8z M230.2,456.2c-2.8,0.1-6.3-1.8-7.9-3.7c-2.5,6.1-10.4,17.5-14.4,22.3
	c-0.9,1.8,5.5,10.2,14.7-2.5C224.6,468.1,229.5,460.6,230.2,456.2L230.2,456.2z M191.2,422.5c-0.5,3-1.4,5-0.2,8.5
	c-2.6,3.6-12.1,10.5-15.8,13.3c-13.9,7.3-15.9-3.1-14.3-4.3c3.4-3.9,24.3-13.3,29-17.8C190,422.2,190.5,422.4,191.2,422.5
	L191.2,422.5z M165.3,414.5c0,0,8.1-1.2,10.6-3.1c-1.5-3.7,0.2-8.3,3.3-9.4c-2.1-0.2-2.7-1.7-4.1-2.2c0,0-14.5-2.5-22.1-0.6
	c0,0-2.3,2.9-4.2,8.5c0,0,2.8,5.3,9.7,6.9C158.5,414.7,164.2,414.5,165.3,414.5L165.3,414.5z M212.9,481.3
	c-0.9,5.5-4.2,13.4-8.2,17.2c0,0-8.1,7.3-15.8,1c0,0,13.4-11.3,15.9-22.3C206.6,479.3,209.6,480.7,212.9,481.3L212.9,481.3z
	 M215,482.2c1.4,0.6,8.9,4.1,10,3.7c-2.5,10-8.3,16.2-8.3,16.2c-6.8,5.8-12.7,2.9-12.7,2.9l2.1-4.1
	C215.1,493.1,214.7,482.1,215,482.2L215,482.2z M189.3,328.1c-3.9,1.4-7.8,2.4-11.5,3c-1.9,0.3-5.5,0.6-5.5,0.6
	c-4.7-0.8-5.9-4.7-5.9-4.7c1.1-4.9,4.6-3.6,5.5-4c3.3-0.5,5.7-0.2,9.5-1.8C183.1,322.5,187.6,326.3,189.3,328.1L189.3,328.1z
	 M201.7,386.8c6.5-4.5-4.9-10.8,5.4-15.6c-4.7,1.1-15.2,2.6-19.5,2.8c-3.8,1.1-5.2,1.6-7.4,6.4C184.2,388.4,193.9,387.3,201.7,386.8
	L201.7,386.8z M203.8,414.7c1.1-4.2-0.5-6-2.2-7.2c-5.4,0.9-11.7-0.4-15.2-1.5c-3-0.8-5.5-2.8-8.3,1.9
	C184.3,423.5,198.5,420.5,203.8,414.7L203.8,414.7z M202.4,404.5c-7,0.4-25.5-2.6-24.4-9.9c2.2-4,6.6-5.4,9.7-5.1
	c3.7,0.6,10.2,1.6,15.4-0.1C203.2,389.3,203.9,395.8,202.4,404.5L202.4,404.5z M208.6,366.8c6.8-8.3-1.1-15.7-1.2-15.6
	c-4.1,2.2-13.5,6.4-17.4,7.7c-3.4,0.8-10.4-1.7-9.3,7.9C186.4,373.2,201.5,369.3,208.6,366.8L208.6,366.8z M205.5,348.9
	c-4.6,2.1-9,4-14.9,6.3c-7.5,1.2-11.4-2.2-11.4-2.2c0.3-5,5.2-7.6,8.5-8.8c3.8-1.7,7.6-3.1,11.6-4.1
	C199.5,340,205.3,347.6,205.5,348.9L205.5,348.9z M217.5,423.8c2.5,1.8,7.2,3.9,11.3,4.8c-3.5,5.1-5.3,6.9-7.9,10
	c-1.5,1.4-8,3.3-11.8,2C205,430.9,213.9,429.2,217.5,423.8L217.5,423.8z M193.1,422.7c4,0.3,10.3-4.4,13.1-6.1
	c2,3.4,7.9,5.4,9.3,6.3c-4.7,4.1-6.2,5.6-9.4,8c-1.8,1-12.5,1.4-13.7-1.7C192.4,426.7,192.4,425.1,193.1,422.7L193.1,422.7z
	 M231.6,429.4l1.4,0.5v21.9c-7.7,1.4-12.2-3.6-11.1-9.9C223.9,440.3,227.1,436.2,231.6,429.4L231.6,429.4z M197.4,337.6
	c-1-2.1-4.3-6.8-6.4-8.1c-5.9,2.5-16.2,4.7-19.1,4.2c-1.1,1-0.9,5.6-0.1,7.1c7.2,2.7,7.8,1.7,14.6,0.4
	C189.2,340.6,192.7,339.1,197.4,337.6L197.4,337.6z M176.7,378.1c-11.3,2.8-27.8-1-26.1,15.1c0,1.5,0.7,2.5,23.4,2.8
	c1.7-4,3.3-7.6,6.9-8.7C177.6,385,176.3,381.2,176.7,378.1L176.7,378.1z M176.6,465.1c5.1,1.9,8,0.4,8,0.4
	c-4.4,5.8-15.6,11.4-15.6,11.4c-5,4.8-11.2,2.5-11.2,2.5c-1-3-0.5-7,2.7-8.5c7.5-2.5,14.1-10,14.1-10
	C174.7,463.2,175.5,464.5,176.6,465.1L176.6,465.1z M187.1,466.2c0,0-6,7-13.9,11c-1.8,0.5-4.4,1.9-5,3.7c0,0-1.9,3.1-0.2,5.6
	c0,0,5.6,2.1,11.2-0.4c0,0,7.5-3.9,12.7-13.7C188.7,469.9,188.1,468.8,187.1,466.2L187.1,466.2z M139.6,349.4
	c-0.4-1.3,4.5-9.6,6.9-12.3c0,0-8.8-0.3-11.8-3.1c0,0-0.6-2.3,1.9-4.8c0,0-8.6,0.3-13.8,3.6c0,0-4.7,1.9-5.8,5.3
	C119.6,347.3,131.7,347.7,139.6,349.4L139.6,349.4z M128.4,311.7l15.4-3.2l10,6.4c-9.1,5.1-14.4,10.2-28.7,4.3
	C123.1,314.5,128.4,311.7,128.4,311.7L128.4,311.7z M125.2,310c9.9-1.3,16.5-3.3,16.5-3.3l-1.7-3.4c0,0-11.3-4.4-17.4-2.8
	c0,0-3.3,1.7-4.4,4.7C118.1,305.1,118,309.1,125.2,310L125.2,310z M133.3,294.6l6.4,6.6c-8.1-1.6-28.4-7.8-30.4-18
	c7.2,5,21.8,8.3,21.8,8.3L133.3,294.6L133.3,294.6z M166,322.4c0,0-7.9-2.3-10-5.2c0,0-14.6,4.8-18.5,14.8
	c7.8,3.7,20.2,0.7,27.9-2.2C163.5,329.5,163.7,324.5,166,322.4L166,322.4z M114.5,272.2c0,0-21.5-11.9-39.8-12.4
	c0,0,14.4,15.5,32.9,24.6c0,0-1.7-2.2-1.9-4.7c0,0-4.7-3.7-4.9-7c0,0,6-1.6,13,0.2C114.5,273,114.8,272.8,114.5,272.2L114.5,272.2z
	 M159.4,302.3c-6.6-2.4-15.7-6.6-20.3-5.5c-8.1-12.9-18.7-21.5-18.2-21.6c7.5,2.5,19,9.6,25.2,14.7
	C149.4,292.3,157.9,298.8,159.4,302.3L159.4,302.3z M161.4,311.2l10.1-0.2c-0.6-1-5.8-5.8-6.6-5.8c-1.3-0.1-2.6-0.2-3.8-0.3
	c-2.7-0.3-5.1-1.5-7.6-2.4c-2.3-0.8-4.6-1.5-6.9-2.3c-0.5-0.2-5.8-0.9-5.7-0.5C142.5,306.6,154.5,311.7,161.4,311.2L161.4,311.2z
	 M163.1,313.1c-0.3-0.1-4.1,1.2-7.7,0.6c5.6,6.1,15.3,8.6,23.2,6.4l1.7-0.3c-0.9-2.1-4.9-6.7-7.1-6.9
	C172.1,312.8,163.8,313.2,163.1,313.1L163.1,313.1z M130,289.1l-9.4-10.2c0,0-8-6.6-16-4.4C104.6,274.5,108.2,284.4,130,289.1
	L130,289.1z M120.3,298.6c-0.2-0.1-5.2,5.4-4.9,9.2c-4.9-1.1-17.4-5.3-18.6-19.8c3-2.3,7.8-2.5,11.3-1.4
	C108.2,286.6,114.3,294.8,120.3,298.6L120.3,298.6z M232.8,458.3c-2.4,4.2-7.4,19.6-14.6,21.7c0,0,5.8,5.2,14.5,1.8L232.8,458.3
	L232.8,458.3z M232.8,484.9l0,14.1c-6.4,9.8-14.6,7.6-14.6,7.6l0.4-2.3c6-6.4,9.1-18.7,9.1-18.7
	C229.2,486.1,232.5,484.9,232.8,484.9L232.8,484.9z M122.2,319.7c5.2,5,16.1,5.4,16.1,5.4c-5.5,4.1-14.1,3.6-14.1,3.6
	c-11.9-2.2-18-14.7-18-14.7c0.9-1.8,4.5-3.8,6.4-4.7l4.7,1.1l5.8,1.7C122.4,314.2,121.4,318.1,122.2,319.7L122.2,319.7z
	 M149.1,400.6c-2.2,2.2-2.8,7.7-2.8,7.7c0,1.7-24.6,3.4-26.5-3.2c-0.6-1.4-3.7-6-0.5-5.6c8.5,0.9,25.2-1,28.8-2.6
	C148.2,398,149.1,400.6,149.1,400.6L149.1,400.6z M142.1,358.5c0,0-0.5-2.1,2.6-5.4c-0.3,0.4-11.9-2.1-12.7-2.2
	c-2.6-0.5-5.2-1.3-7.8-1.6c-4.2-0.6-7.8,1.6-10.5,4.6c-0.6,0.7,2.1,4.6,2.5,5c5.2,6.5,20.6,9.9,28.4,7.3l5.4-0.6
	C150,365.5,144.2,363,142.1,358.5L142.1,358.5z M203.1,476.5c-6.6-0.6-4.6-0.4-9.7-3.5c0,0-4.2,10.1-12.1,15.1c0,0-3.3,4.6-0.4,7.3
	c3.1,1.6,7.5,0.1,10.2-1.7C191.1,493.7,199.8,486.9,203.1,476.5L203.1,476.5z M146.7,388.9c0.1,1.7-0.4,4.4,1.4,5.2
	c-5.3,1.1-32.5,5.7-32.6-4.3c-0.1-6.5,6.8-8.4,12-9.1c2.4-0.3,22.8,0.5,22.6,0.9C150.2,381.7,146.9,383.8,146.7,388.9L146.7,388.9z
	 M167.7,457.1c3.4,2.4,6.1,2,6.1,2c-6.6,3.3-8,9.2-20,10.9c-1.1,0.1-8.7,0-8.7-2c0-3.4,1.4-8.3,5.4-8.9c5-1,17-8.1,17-8.1
	C166.4,453.1,167.2,456,167.7,457.1L167.7,457.1z M145.8,378.8c0.4-2.2,3.7-8,5-10.4l-3.5,0.2c-6.9,1.5-17.5,0-24.5-1.9
	c-5.6-0.8-8.3,4.8-8.3,4.8c1.7,8.5,8.7,7.5,8.7,7.5C130.1,377.6,145.8,378.8,145.8,378.8L145.8,378.8z M158.7,445.5
	c-0.7-1.6-1-3-0.6-4.9c-4.9,0.7-11.6,1.8-16.2,3.5c0,0-5,3.5-5.4,9.7c0,0,3.9,3.9,11.4,2.7c0,0,9.3-1.7,17.6-7.1
	C165.5,449.5,162.2,450.6,158.7,445.5L158.7,445.5z M151.4,432.5c-0.7-1-2.9-3.5-2.1-5.7c-4.3-0.1-14.2,1.1-18.5,1.6
	c0,0-4.7,4.5-3.9,9.2c0,0,4.4,4.1,9.7,4.4c7-1.1,13.5-1.6,21.3-4.9C157.9,437.1,154.3,436.8,151.4,432.5L151.4,432.5z M155.7,417
	c0,0-7.3-3.3-8.4-6c-4.6,1.4-13.6,2.1-18.4,2c-5.4,1.9-9.1,6.4-3.1,10.7c3.5,2.5,8.4,1.8,12.4,1.5c1.2-0.1,11.9-0.6,12-1.7
	C150.1,423.1,153.7,419,155.7,417L155.7,417z M431.1,345.6c6.4,1.7,14.7,8,17.6,2.3c-2.2-4.4-6.5-9.3-6.5-9.3
	c-5.8-5.3-19.6-6.3-19.6-6.3c0.5,3.8,1.5,5.6-0.2,10.2L431.1,345.6L431.1,345.6z M412.5,345.4c0,0,4.9-0.4,7-1.7
	c6.9,3.2,25.6,9.3,27.4,14.8c0,0-4.5,7-15.6,3.7l-17-6.4C420.3,355.2,414.9,348.2,412.5,345.4L412.5,345.4z M417.3,360.1l-4.1-1.7
	c2.8,3.8,1.9,10.9-2.8,13.5c-1.1,0.6,0.9,1.7,1.8,2.6c4.7,2.2,23.8,4.2,29.3,4c0.4-6-3.8-10.5-3.8-10.5
	C436.3,366.1,417.3,360.1,417.3,360.1L417.3,360.1z M386.5,434.9c0.2-0.5,0.3-0.7,0.3-1.3c4.3,0.3,8.3,0.7,11.9-1
	c0.7,3.6,26,17.5,22.9,22.3C414.8,462.5,390.8,440.7,386.5,434.9L386.5,434.9z M372.8,442.5c0.4,1.7,0,4.1-1.3,7.2l9.6,15.5
	c2.5,4.6,5.4,5.6,5.9,6.1c4.4,3.9,10.5-1.6,14.6-5.5c-6.1-2.7-18.5-15-23.5-22.1C376.5,443.8,374.8,443.5,372.8,442.5L372.8,442.5z
	 M404.3,420.8l14.7,8.4c4.5,2.7,11.3,5.4,12,5.4c5.8,0.4,8.2-7,8.2-7c0.3-1.7-0.8-4.7-0.8-4.7c-1.7-4.4-11-6.1-11-6.1
	c-3.9-0.5-12.4-3.7-12.4-3.7C414.8,414.5,408.2,421.3,404.3,420.8L404.3,420.8z M381.8,443.8c2.6,3.6,13.1,13.6,16.9,16.4
	c13.9,7.3,17.8,0.3,15.6-1.2c-8-2.1-23.3-13.8-28.4-21.3C385.7,441.3,384.3,443.4,381.8,443.8L381.8,443.8z M361.7,456.2
	c2.8,0.1,6.3-1.8,7.9-3.7c2.5,6.1,10.4,17.5,14.4,22.3c0.9,1.8-5.5,10.2-14.7-2.5C367.3,468.1,362.4,460.6,361.7,456.2L361.7,456.2z
	 M400.7,422.5c0.5,3,1.4,5,0.2,8.5c2.6,3.6,12.1,10.5,15.8,13.3c13.9,7.3,15.9-3.1,14.3-4.3c-3.4-3.9-24.3-13.3-29-17.8
	C401.9,422.2,401.4,422.4,400.7,422.5L400.7,422.5z M426.6,414.5c0,0-8.1-1.2-10.6-3.1c1.5-3.7-0.2-8.3-3.3-9.4
	c2.1-0.2,2.7-1.7,4.1-2.2c0,0,14.5-2.5,22.1-0.6c0,0,2.3,2.9,4.2,8.5c0,0-2.8,5.3-9.7,6.9C433.4,414.7,427.7,414.5,426.6,414.5
	L426.6,414.5z M378.9,481.3c0.9,5.5,4.2,13.4,8.2,17.2c0,0,8.1,7.3,15.8,1c0,0-13.4-11.3-15.9-22.3
	C385.3,479.3,382.2,480.7,378.9,481.3L378.9,481.3z M376.8,482.2c-1.4,0.6-8.9,4.1-10,3.7c2.5,10,8.3,16.2,8.3,16.2
	c6.8,5.8,12.7,2.9,12.7,2.9l-2.1-4.1C376.8,493.1,377.2,482.1,376.8,482.2L376.8,482.2z M402.6,328.1c3.9,1.4,7.8,2.4,11.5,3
	c1.9,0.3,5.5,0.6,5.5,0.6c4.7-0.8,5.9-4.7,5.9-4.7c-1.1-4.9-4.6-3.6-5.5-4c-3.3-0.5-5.7-0.2-9.5-1.8
	C408.8,322.5,404.3,326.3,402.6,328.1L402.6,328.1z M390.2,386.8c-6.5-4.5,4.9-10.8-5.4-15.6c4.7,1.1,15.2,2.6,19.5,2.8
	c3.8,1.1,5.2,1.6,7.4,6.4C407.7,388.4,397.9,387.3,390.2,386.8L390.2,386.8z M388.1,414.7c-1.1-4.2,0.5-6,2.2-7.2
	c5.4,0.9,11.7-0.4,15.2-1.5c3-0.8,5.5-2.8,8.3,1.9C407.5,423.5,393.4,420.5,388.1,414.7L388.1,414.7z M389.5,404.5
	c7,0.4,25.5-2.6,24.4-9.9c-2.2-4-6.6-5.4-9.7-5.1c-3.7,0.6-10.2,1.6-15.4-0.1C388.6,389.3,388,395.8,389.5,404.5L389.5,404.5z
	 M383.3,366.8c-6.8-8.3,1.1-15.7,1.2-15.6c4.1,2.2,13.5,6.4,17.4,7.7c3.4,0.8,10.4-1.7,9.3,7.9C405.5,373.2,390.4,369.3,383.3,366.8
	L383.3,366.8z M386.4,348.9c4.6,2.1,9,4,14.9,6.3c7.5,1.2,11.4-2.2,11.4-2.2c-0.3-5-5.2-7.6-8.5-8.8c-3.8-1.7-7.6-3.1-11.6-4.1
	C392.4,340,386.6,347.6,386.4,348.9L386.4,348.9z M374.3,423.8c-2.5,1.8-7.2,3.9-11.3,4.8c3.5,5.1,5.3,6.9,7.9,10
	c1.5,1.4,8,3.3,11.8,2C386.9,430.9,378,429.2,374.3,423.8L374.3,423.8z M398.8,422.7c-4,0.3-10.3-4.4-13.1-6.1
	c-2,3.4-7.9,5.4-9.3,6.3c4.7,4.1,6.2,5.6,9.4,8c1.8,1,12.5,1.4,13.7-1.7C399.5,426.7,399.4,425.1,398.8,422.7L398.8,422.7z
	 M360.3,429.4l-1.4,0.5v21.9c7.7,1.4,12.2-3.6,11.1-9.9C368,440.3,364.8,436.2,360.3,429.4L360.3,429.4z M394.5,337.6
	c1-2.1,4.3-6.8,6.4-8.1c5.9,2.5,16.2,4.7,19.1,4.2c1.1,1,0.9,5.6,0.1,7.1c-7.2,2.7-7.8,1.7-14.6,0.4
	C402.7,340.6,399.2,339.1,394.5,337.6L394.5,337.6z M415.2,378.1c11.3,2.8,27.8-1,26.1,15.1c0,1.5-0.7,2.5-23.4,2.8
	c-1.7-4-3.3-7.6-6.9-8.7C414.3,385,415.5,381.2,415.2,378.1L415.2,378.1z M415.2,465.1c-5.1,1.9-8,0.4-8,0.4
	c4.4,5.8,15.6,11.4,15.6,11.4c5,4.8,11.2,2.5,11.2,2.5c1-3,0.5-7-2.7-8.5c-7.5-2.5-14.1-10-14.1-10
	C417.2,463.2,416.4,464.5,415.2,465.1L415.2,465.1z M404.8,466.2c0,0,6,7,13.9,11c1.8,0.5,4.4,1.9,5,3.7c0,0,1.9,3.1,0.2,5.6
	c0,0-5.6,2.1-11.2-0.4c0,0-7.5-3.9-12.7-13.7C403.2,469.9,403.8,468.8,404.8,466.2L404.8,466.2z M452.2,349.4
	c0.4-1.3-4.5-9.6-6.9-12.3c0,0,8.8-0.3,11.8-3.1c0,0,0.6-2.3-1.9-4.8c0,0,8.6,0.3,13.8,3.6c0,0,4.7,1.9,5.8,5.3
	C472.3,347.3,460.2,347.7,452.2,349.4L452.2,349.4z M463.5,311.7l-15.4-3.2l-10,6.4c9.1,5.1,14.4,10.2,28.7,4.3
	C468.8,314.5,463.5,311.7,463.5,311.7L463.5,311.7z M466.7,310c-9.9-1.3-16.5-3.3-16.5-3.3l1.7-3.4c0,0,11.3-4.4,17.4-2.8
	c0,0,3.3,1.7,4.4,4.7C473.8,305.1,473.9,309.1,466.7,310L466.7,310z M458.5,294.6l-6.4,6.6c8.1-1.6,28.4-7.8,30.4-18
	c-7.2,5-21.8,8.3-21.8,8.3L458.5,294.6L458.5,294.6z M425.9,322.4c0,0,7.9-2.3,10-5.2c0,0,14.6,4.8,18.5,14.8
	c-7.8,3.7-20.2,0.7-27.9-2.2C428.4,329.5,428.1,324.5,425.9,322.4L425.9,322.4z M477.4,272.2c0,0,21.5-11.9,39.8-12.4
	c0,0-14.4,15.5-32.9,24.6c0,0,1.7-2.2,1.9-4.7c0,0,4.7-3.7,4.9-7c0,0-6-1.6-13,0.2C477.4,273,477.1,272.8,477.4,272.2L477.4,272.2z
	 M432.5,302.3c6.6-2.4,15.7-6.6,20.3-5.5c8.1-12.9,18.6-21.5,18.2-21.6c-7.5,2.5-19,9.6-25.2,14.7
	C442.5,292.3,433.9,298.8,432.5,302.3L432.5,302.3z M430.5,311.2l-10.1-0.2c0.6-1,5.8-5.8,6.6-5.8c1.3-0.1,2.6-0.2,3.8-0.3
	c2.7-0.3,5.1-1.5,7.6-2.4c2.3-0.8,4.6-1.5,6.9-2.3c0.5-0.2,5.8-0.9,5.7-0.5C449.3,306.6,437.4,311.7,430.5,311.2L430.5,311.2z
	 M428.8,313.1c0.3-0.1,4.1,1.2,7.7,0.6c-5.6,6.1-15.3,8.6-23.2,6.4l-1.7-0.3c0.9-2.1,4.9-6.7,7.1-6.9
	C419.7,312.8,428.1,313.2,428.8,313.1L428.8,313.1z M461.9,289.1l9.4-10.2c0,0,8-6.6,16-4.4C487.3,274.5,483.7,284.4,461.9,289.1
	L461.9,289.1z M471.6,298.6c0.2-0.1,5.2,5.4,4.9,9.2c4.9-1.1,17.4-5.3,18.6-19.8c-3-2.3-7.8-2.5-11.3-1.4
	C483.7,286.6,477.5,294.8,471.6,298.6L471.6,298.6z M359,458.3c2.4,4.2,7.4,19.6,14.6,21.7c0,0-5.8,5.2-14.5,1.8L359,458.3
	L359,458.3z M359,484.9l0,14.1c6.4,9.8,14.6,7.6,14.6,7.6l-0.4-2.3c-6-6.4-9.1-18.7-9.1-18.7C362.7,486.1,359.3,484.9,359,484.9
	L359,484.9z M469.7,319.7c-5.3,5-16.1,5.4-16.1,5.4c5.5,4.1,14.1,3.6,14.1,3.6c11.9-2.2,18-14.7,18-14.7c-0.9-1.8-4.5-3.8-6.4-4.7
	l-4.7,1.1l-5.8,1.7C469.5,314.2,470.5,318.1,469.7,319.7L469.7,319.7z M442.8,400.6c2.2,2.2,2.8,7.7,2.8,7.7
	c0,1.7,24.6,3.4,26.5-3.2c0.6-1.4,3.7-6,0.5-5.6c-8.5,0.9-25.2-1-28.8-2.6C443.7,398,442.8,400.6,442.8,400.6L442.8,400.6z
	 M449.8,358.5c0,0,0.5-2.1-2.6-5.4c0.3,0.4,11.9-2.1,12.7-2.2c2.6-0.5,5.2-1.3,7.8-1.6c4.2-0.6,7.8,1.6,10.5,4.6
	c0.6,0.7-2.1,4.6-2.5,5c-5.2,6.5-20.6,9.9-28.4,7.3l-5.4-0.6C441.9,365.5,447.7,363,449.8,358.5L449.8,358.5z M388.8,476.5
	c6.6-0.6,4.6-0.4,9.7-3.5c0,0,4.2,10.1,12.1,15.1c0,0,3.3,4.6,0.4,7.3c-3.1,1.6-7.5,0.1-10.2-1.7
	C400.8,493.7,392.1,486.9,388.8,476.5L388.8,476.5z M445.1,388.9c-0.1,1.7,0.4,4.4-1.4,5.2c5.3,1.1,32.5,5.7,32.6-4.3
	c0.1-6.5-6.8-8.4-12-9.1c-2.4-0.3-22.8,0.5-22.6,0.9C441.7,381.7,445,383.8,445.1,388.9L445.1,388.9z M424.2,457.1
	c-3.4,2.4-6.1,2-6.1,2c6.6,3.3,8,9.2,20,10.9c1.1,0.1,8.7,0,8.7-2c0-3.4-1.4-8.3-5.4-8.9c-5-1-17-8.1-17-8.1
	C425.5,453.1,424.7,456,424.2,457.1L424.2,457.1z M446,378.8c-0.4-2.2-3.7-8-5-10.4l3.5,0.2c6.9,1.5,17.5,0,24.5-1.9
	c5.6-0.8,8.3,4.8,8.3,4.8c-1.7,8.5-8.7,7.5-8.7,7.5C461.8,377.6,446,378.8,446,378.8L446,378.8z M433.2,445.5c-3.5,5.1-6.8,4-6.8,4
	c8.3,5.4,17.6,7.1,17.6,7.1c7.5,1.2,11.4-2.7,11.4-2.7c-0.4-6.2-5.4-9.7-5.4-9.7c-4.6-1.7-11.2-2.8-16.2-3.5
	C434.2,442.5,433.9,443.9,433.2,445.5L433.2,445.5z M440.4,432.5c-2.9,4.3-6.5,4.6-6.5,4.6c7.8,3.3,14.3,3.9,21.3,4.9
	c5.2-0.3,9.7-4.4,9.7-4.4c0.8-4.7-3.9-9.2-3.9-9.2c-4.3-0.4-14.2-1.7-18.5-1.6C443.3,429,441.1,431.5,440.4,432.5L440.4,432.5z
	 M436.2,417c0,0,7.3-3.3,8.4-6c4.6,1.4,13.6,2.1,18.4,2c5.4,1.9,9.1,6.4,3.1,10.7c-3.5,2.5-8.4,1.8-12.4,1.5
	c-1.2-0.1-11.9-0.6-12-1.7C441.8,423.1,438.2,419,436.2,417L436.2,417z M163,540.7c-4.4-3.9-8.5,0.8-8.5,0.8c-0.8,1.6-1.7,2.9-2.6,4
	c-0.5-2-2.1-2.9-4.8-2.7c-3.4,0.9-4.1,3.2-2.3,6.9c0.9-0.3,1.9-0.5,3.1-0.7c5.6,0.8,7.2,7.6,7.2,7.6l0.4-4.9
	c4.1-4.4,6.4-0.3,6.4-0.3c-3.6-1.9-4.4,1.1-4.4,1.1c2.2,3.3,0,7.2,0,7.2c5.8-0.8,6.4-6.1,6.4-6.1l3.3-1.1
	C170.7,549.3,163,540.7,163,540.7L163,540.7L163,540.7z M429.1,540.7L429.1,540.7c0,0-7.8,8.6-4.1,11.9l3.3,1.1c0,0,0.6,5.3,6.4,6.1
	c0,0-2.2-3.9,0-7.2c0,0-0.8-3-4.4-1.1c0,0,2.2-4.2,6.4,0.3l0.4,4.9c0,0,1.6-6.8,7.2-7.6c0,0-4.2-2.4-6.6-7.5
	C437.6,541.5,433.5,536.9,429.1,540.7L429.1,540.7z M173.1,584.1c1-1.8,1.6-4.1,1.9-6.8c15.8,11.9,23.6,24.1,22.9,36.1
	c5.5,2.1,9.7,4.4,12.5,7c-1.4-16.3-13.2-32.7-35.5-49.3c-0.2-1.7-0.4-3.5-0.8-5.4c3.5-0.5,10.7-1.3,18.1-0.7c1-3.9,3.1-6.9,6.2-9.1
	c-1.9-1-3.3-2.6-4.5-4.8c-1.9-0.1-2.4-0.2-3,0.4l-2.8,0.5c0,0-1.9-1.3-7.2,0.3H175c0,0-2.2-0.6-4.1-0.5c0.4,0.1,0.5,0.6-0.6,2
	c-1.4-0.4-2.7,0.3-3,1.8c0,0,1.6,1.1,1.6,2.1c-0.5,0.3-0.8,0.7-0.8,1.2c0.2,0.3,0.4,0.6,0.6,0.8c0.1,0.2,0.9,1.5,1.3,1.8
	c-0.3,0.1,1.5,2.2,1.3,2.8c0.3,0.6,0.4,1.1,0.6,1.8c0.2,0.2,0.5,0.6,0.7,1.2c0.1,0.6-0.1,1.6-0.1,2.3c1.3,0.5,1.2,2,0.9,3
	c-0.1,0.7-0.1,1-0.2,1c-0.9,0.9-1.1,2.1-1.1,2.1c-0.5-0.6-0.3-1.1-0.3-1.1c0.6-1.6-0.2-2.8-0.8-3.4c-0.4,0-0.9-0.2-1.5-0.5
	c0,0,1.7-4.6-1.9-10.1c0,0-1.5,4.2-3,8.8c0,0-1-0.6-2.2,0.3l-1.4,2.2l0.4-3.9c0,0-0.2-3.3,0.8-4.7l0.9-2.3c0,0-4-2.7-9.2,2v-1.7
	l-1.7-0.8c0,0,0.3-1.9-1.9-2.2c0,0-0.7-2-2.3-1c-1,0.2,2.9-4.3,6.4-1.2c0,0-2.4-5.8-7.2-4.9c-4.8,0.8-4.4,1.5-4.4,1.5
	s-4.3-1.3-6.1,4.6c-0.2,2.5-0.9,7.1-2.2,9.1c0,0-1.4,2.8,2.5,6.4c0,0,1.1,3.9,4.4,1.9c0,0,0.2-0.1,0.6-0.3c-1.8-1.6,2.3,1.6,3-3
	c0,0,0.8-6.4,5.3-8.3c0,0-3.9,2.8-3,6.9c0,0-1,3.5-1.8,6.9c0.6,1.4,1.4,3.1,2.6,3.6c0,0,0.6,3.9,6.4,1.7c0,0,1-0.1,2.2-0.6
	c0-0.2-0.2-0.3-0.4-0.4c2.6-0.8,4.1-4.1,4.9-6.4c-0.1,2.4,0.3,5.4,0.3,5.4c-0.4,0.3-0.8,0.5-1.2,0.7c0.6,1.7,2,4,5.1,4.8
	c0,0,4.4,2.2,6.4-1.1C171.8,584.5,172.3,584.3,173.1,584.1L173.1,584.1z M394,555.9c3.2,2.3,5.3,5.3,6.2,9.1
	c7.4-0.6,14.7,0.2,18.1,0.7l-7.6,4.7l-14.3,8.8c1.6,0.2,2.8,0.4,3.5,0.7l2.7,1.3c0.1,0.3,0.2,0.4,0.2,0.5l2.8,2.2
	c0.5,0.2,0.8,0.5,0.9,0.8l2.1,3.4c0.2,0.6,0.3,1.2,0.3,1.7l1.7,0.4l2.6-1.1c0.3,0.1,0.5,0.2,0.5,0.3l-0.2,2.1l6-7.4
	c0.7,0.2,1.3,0.4,1.7,0.6c1.9,3.3,6.4,1.1,6.4,1.1c3.1-0.9,4.4-3.2,5.1-4.8c-0.4-0.2-0.8-0.4-1.2-0.7c0,0,0.5-3,0.3-5.4
	c0.7,2.3,2.2,5.6,4.9,6.4c-0.3,0.1-0.4,0.3-0.4,0.4c1.2,0.4,2.2,0.6,2.2,0.6c5.8,2.2,6.4-1.7,6.4-1.7c1.2-0.6,2.1-2.3,2.6-3.6
	c-0.8-3.4-1.8-6.9-1.8-6.9c0.8-4.1-3-6.9-3-6.9c4.4,1.9,5.3,8.3,5.3,8.3c0.7,4.6,4.8,1.4,3,3c0.3,0.1,0.6,0.3,0.6,0.3
	c3.3,1.9,4.4-1.9,4.4-1.9c3.9-3.6,2.5-6.4,2.5-6.4c-1.3-2-2-6.7-2.2-9.1c-1.9-6-6.1-4.6-6.1-4.6s0.4-0.6-4.4-1.5s-7.2,4.9-7.2,4.9
	c3.6-3.1,7.5,1.5,6.4,1.2c-1.6-1-2.3,1-2.3,1c-2.2,0.3-1.9,2.2-1.9,2.2l-1.7,0.8v1.7c-5.2-4.7-9.2-2-9.2-2l0.9,2.3
	c1,1.3,0.8,4.7,0.8,4.7l0.3,3.9l-1.4-2.2c-1.2-0.9-2.2-0.3-2.2-0.3c-1.5-4.6-3-8.8-3-8.8c-3.6,5.5-1.9,10.1-1.9,10.1
	c-0.6,0.3-1.1,0.5-1.5,0.5c-0.5,0.6-1.4,1.8-0.8,3.4c0,0,0.2,0.5-0.3,1.1c0,0-0.1-1.2-1.1-2.1c-0.1,0-0.1-0.4-0.2-1
	c-0.3-1-0.4-2.5,0.9-3c0-0.6-0.2-1.7-0.1-2.3c0.2-0.6,0.4-1,0.7-1.2c0.2-0.7,0.3-1.1,0.6-1.8c-0.2-0.6,1.6-2.7,1.3-2.8
	c0.4-0.2,1.2-1.6,1.3-1.8c0.2-0.3,0.4-0.6,0.6-0.8c-0.1-0.5-0.4-0.9-0.8-1.2c0.1-1,1.6-2.1,1.6-2.1c-0.3-1.5-1.6-2.2-3-1.8
	c-1.1-1.4-1-1.9-0.6-2c-1.9-0.1-4.1,0.5-4.1,0.5h-6.1c-5.3-1.5-7.2-0.3-7.2-0.3l-2.8-0.5c-0.5-0.6-1-0.6-3-0.4
	C397.3,553.2,395.9,554.8,394,555.9L394,555.9z M400.1,613.1l-4.9,1.3l1.7-2.8l-2.5-0.1l-4.1,0.9l0.3-3.5l-4.6,0.8l-0.8-4.4l-1-1.7
	l-4-0.1l2.5-4.9l-1.8,0.2l0.4-1.6l-1.8-0.8l-3.9-0.6l0.3-2.2l0-4.4l-3.3-1.2l20.6-8.8l2.2,1.1l0.7,0.1l0.5,1.8l2.6-0.7l3.5,0.6
	l-1.3,2l3.2,0.8l0.3,1.5l0.6,4.3l3.7,0.3l3.7,0.5l0.6,2.2l1-1.2l0.5,4.8l-12.8,22.3l-1.7-5l1-1.8L400.1,613.1L400.1,613.1z
	 M320.2,580c0,0,22.8,23.4,25.9,36.4c0,0,3,8.3,2.5,15.1c0,0-10.4-2.8-14.5-9.3c-3.3-8.7-14.2-30.7-20.3-36.1
	C314,586.2,319.3,581.9,320.2,580L320.2,580z M272.3,580c0,0-22.8,23.4-25.9,36.4c0,0-3,8.3-2.5,15.1c0,0,10.4-2.8,14.5-9.3
	c3.3-8.7,14.2-30.7,20.3-36.1C278.6,586.2,273.3,581.9,272.3,580L272.3,580z M325.4,573c0,1.3-3.3,5.8-3.3,5.8
	c8.8,8.6,19.2,21.9,24.7,33.5c6,6.1,15.1,6.6,15.1,6.6C351.9,586.6,325.4,573,325.4,573L325.4,573z M267.2,573
	c0,1.3,3.3,5.8,3.3,5.8c-8.8,8.6-19.2,21.9-24.7,33.5c-5.9,6.1-15.1,6.6-15.1,6.6C240.7,586.6,267.2,573,267.2,573L267.2,573z
	 M306,590.2c6.6,9.3,15.2,40.6,15.2,40.6c5.8,11.9,12.4,12.6,12.4,12.6c1.9-5.1,0.8-9.7,0.8-9.7c-3.9-24.3-22.2-46.6-22.2-46.6
	C311.3,588.5,306,590.2,306,590.2L306,590.2z M286.5,590.2c-6.6,9.3-15.2,40.6-15.2,40.6c-5.8,11.9-12.4,12.6-12.4,12.6
	c-1.9-5.1-0.8-9.7-0.8-9.7c3.9-24.3,22.2-46.6,22.2-46.6C281.3,588.5,286.5,590.2,286.5,590.2L286.5,590.2z M298.1,591.2
	c4,9.1,10.7,58.7-1.8,67.3c-12.5-8.6-5.8-58.2-1.8-67.3L298.1,591.2L298.1,591.2z M304.4,590.6c-1.3,0.9-4.2,0.8-4.2,0.8
	c5.3,10.8,6,45.5,6,45.5c2.1,10.4,12.2,14.8,12.2,14.8c2.8-4.6,2.5-7.9,2.5-7.9C317.4,615.3,304.4,591.4,304.4,590.6L304.4,590.6z
	 M288.2,590.6c1.3,0.9,4.2,0.8,4.2,0.8c-5.3,10.8-6,45.5-6,45.5c-2.1,10.4-12.2,14.8-12.2,14.8c-2.8-4.6-2.5-7.9-2.5-7.9
	C275.1,615.3,288.2,591.4,288.2,590.6L288.2,590.6z M284.8,560.3c0-0.7-6.2-0.4-6.9-0.5c-3.8,1-12.2,8.3-1.8,20
	C275.7,577.6,278.1,565.5,284.8,560.3L284.8,560.3z M307.9,560.3c0-0.7,6.2-0.4,6.9-0.5c3.8,1,12.2,8.3,1.8,20
	C316.9,577.6,314.5,565.5,307.9,560.3L307.9,560.3z M292,588.9c0.1,0.1,0,0.2-0.1,0.2c-5-1-13.8-5.8-13.7-8.3
	c0.5-10.2,5.3-17.3,8.6-19.5c0.7,0,3.3,2.3,3.7,3.7C286.7,573.3,287.4,586.4,292,588.9L292,588.9z M300.5,588.9
	c-0.1,0.1,0,0.2,0.1,0.2c5-1,13.8-5.8,13.7-8.3c-0.5-10.2-5.3-17.3-8.6-19.5c-0.7,0-3.3,2.3-3.7,3.7
	C305.8,573.3,305.1,586.4,300.5,588.9L300.5,588.9z M296.3,573.5l-4.5-7.6c-2.3,16.1-1.6,18.3,4.6,23.4c6-5.1,7.6-6.7,4.3-23.3
	L296.3,573.5L296.3,573.5z M248.4,459.5h8.2l0.1,94.2c-3,0-5.8-0.9-8.3-2.3V459.5L248.4,459.5L248.4,459.5z M265.6,553.7
	L265.6,553.7h8.2v-94.2h-8.2V553.7L265.6,553.7z M300.9,556.3L300.9,556.3c1.6-1.4,3.5-2.4,5.5-2.6h2.6v-94.2h-8.1L300.9,556.3
	L300.9,556.3z M282.8,553.7L282.8,553.7h3.1c1.6,0.2,3.4,1.5,5.1,2.9v-97.1h-8.2L282.8,553.7L282.8,553.7z M335.5,553.7L335.5,553.7
	c3.2,0,6.2-0.9,8.7-2.5v-91.7h-8.9L335.5,553.7L335.5,553.7z M318.1,553.7L318.1,553.7h8.2v-94.2h-8.2V553.7L318.1,553.7z
	 M355.8,411.7V537c0,11.2-9.1,20.3-20.3,20.3c0,0-24.5,0-29,0c-1.1-0.1-3.7,1.8-5.5,4c-1.9,2.2-3.3,4.4-3.3,4.4l-1.3,2.1l-1.6-1.9
	c0,0-6-7.1-8.5-8.4c-0.3-0.2-0.3-0.2-0.3-0.2c-4.6,0-29.2,0-29.2,0c-11.2,0-20.3-9.1-20.3-20.5l0,0.2l-0.1-125.2L355.8,411.7
	L355.8,411.7z M242.7,161c-0.7,0.5-1.6,1.3-2.6,2.5l-0.6,0.7l-1,0c-1.2,0-2.2,0.2-3,0.7c-0.8,0.5-1.6,1.3-2.2,2.5l-0.3,0.5l-0.5,0.3
	c-1.6,0.9-2.7,1.9-3.4,3c-0.6,1.1-0.8,2.4-0.6,3.9l0.2,1.6l-1.5,0.6c-2.6,1.1-4.9,2.7-6.7,4.7c-1.9,2-3.4,4.5-4.5,7.5l-0.1,0.2
	l-0.1,0.2c-1.1,1.9-1.8,4.1-2,6.4c-0.2,2.4,0,5.1,0.8,8.1l0.3,1.2l-0.9,0.8c-1.9,1.7-3.2,3.7-4,5.9c-0.8,2.2-1.1,4.7-0.8,7.5l0,0.3
	l0,0.2c-0.3,1.9-0.3,3.7,0.2,5.2c0.4,1.5,1.3,3,2.5,4.2l1.1,1.1l-0.8,1.4c-0.5,0.8-0.7,1.7-0.7,2.5c0,0.9,0.2,1.8,0.8,2.7l0.6,1.1
	l-0.6,1c-0.7,1.1-1.1,2.2-1.2,3.1c-0.1,0.8,0.1,1.6,0.5,2.3l0.3,0.6l-0.1,0.6c-0.2,1.5,0.1,2.9,0.7,4.3c0.7,1.4,1.8,2.9,3.4,4.2
	l0.8,0.7l-0.1,1c-0.2,4.5,0.1,8.1,1.1,10.9c0.9,2.5,2.2,4.3,4.1,5.3l1.2,0.7l-0.1,1.3c-0.1,1.7,0.4,3.1,1.6,4.4
	c1.4,1.5,3.6,2.7,6.6,3.8l1.1,0.4l0.3,1.1c1.1,4.6,4,8.1,8.5,10.4l0.3,0.2l0.3,0.3c1.2,1.3,2.7,2.2,4.5,2.9c1.9,0.7,4.1,1.1,6.6,1.2
	l1.4,0l0.5,1.3c0.2,0.7,0.7,1.3,1.3,1.7c0.7,0.5,1.6,0.9,2.8,1.2l0.6,0.1l0.4,0.5c2,2.2,4.5,3.8,7.4,4.6c2.9,0.8,6.3,0.9,10.1,0.3
	l1.2-0.2l0.8,1c1.6,2,3.7,3.5,6.4,4.4c2.7,0.9,6,1.2,9.9,0.9l0.4,0l0.4,0.1c1.4,0.4,3,0.3,4.7-0.2c1.9-0.6,3.9-1.6,6.1-3.2l1-0.7
	l1.1,0.6c1.1,0.5,2.2,0.9,3.3,1.1c1.2,0.2,2.4,0.3,3.7,0.2l0.3,0l0.3,0.1c0.8,0.2,1.8,0,3.1-0.5c1.5-0.6,3.2-1.5,5.1-2.9l0.5-0.4
	l0.6,0c1.8-0.1,3.3-0.7,4.6-1.7c1.3-1.1,2.4-2.6,3.2-4.7l0.7-1.9l1.9,0.7c0.3,0.1,0.7,0,1.3-0.2c0.9-0.3,2-1,3.3-2l0.9-0.7l1.1,0.4
	c0.9,0.3,1.9,0.2,3-0.2c1.3-0.6,2.8-1.7,4.4-3.3l0.5-0.6l0.8-0.1c1.3-0.1,2.7-1,4.2-2.6v0c1.7-1.9,3.4-4.6,5.2-8.3l0.6-1.4l1.5,0.2
	c3.3,0.4,5.4-1.6,6.2-6.1l0.2-1l0.9-0.5c1.2-0.6,2.1-1.8,2.7-3.4c0.7-2,0.9-4.6,0.7-7.9l-0.1-1.1l0.8-0.7c2.5-2,4.3-4.3,5.5-6.9
	c1.2-2.6,1.8-5.7,1.8-9l0-0.7l0.4-0.5c0.2-0.2,0.2-1.1,0.1-2.5c-0.2-1.8-0.6-4.3-1.4-7.4l-0.1-0.6l0.2-0.6c0.2-0.7,0.4-1.6,0.5-2.8
	c0.1-1.2,0.2-2.7,0.2-4.4l0-0.6l0.3-0.5c1.6-2.6,2-5.4,1.3-8.5l0-0.1l0-0.2c-0.2-2-0.6-3.9-1.4-5.7c-0.7-1.8-1.7-3.4-3-5l-0.7-0.9
	l0.4-1.1c1.3-3.7,1.7-6.7,1.3-8.8c-0.4-1.8-1.5-3-3.3-3.6l-1.3-0.5l0-1.4c-0.1-2.8-0.7-4.9-1.9-6.3c-1.1-1.4-2.7-2.2-4.9-2.5l-2-0.3
	l0.2-2c0.3-3-0.3-5.6-1.6-7.7c-1.3-2.2-3.5-3.9-6.5-5.3l-0.5-0.2l-0.3-0.5c-1.2-1.8-2.7-3.2-4.4-4.2c-1.7-1-3.6-1.5-5.9-1.7
	l-1.4-0.1l-0.4-1.3c-0.4-1.3-1.2-2.4-2.3-3.5c-1.2-1.1-2.7-2-4.6-2.8l-0.6-0.2l-0.4-0.5c-0.9-1.3-1.9-2.4-2.9-3
	c-1-0.6-2.2-1-3.4-1.1l-0.9,0l-0.6-0.6c-0.8-0.9-1.9-1.5-3.1-1.8c-1.3-0.3-2.9-0.3-4.8,0.1l-1.1,0.2l-0.8-0.8
	c-3.3-3.2-7-4.9-10.9-5.3c-4.1-0.3-8.6,0.8-13.5,3.3l-0.9,0.5l-0.9-0.4c-2.4-1.1-4.8-1.7-7.2-1.8c-2.3-0.1-4.6,0.1-6.9,0.9l-0.4,0.1
	l-0.4,0c-1.9-0.2-3.5,0.1-4.9,0.8c-1.3,0.7-2.5,1.8-3.4,3.5l-0.8,1.4l-1.6-0.4c-3.4-0.9-6.4-1-8.9-0.1c-2.5,0.9-4.7,2.6-6.6,5.3
	l-0.3,0.5l-0.5,0.2c-1.9,0.9-3.3,1.9-4.2,3.1c-0.8,1-1.3,2.2-1.3,3.4l-0.1,2.5l-2.5-0.6C243.3,160.6,243.1,160.8,242.7,161
	L242.7,161L242.7,161z M237.5,160.1c1-1.1,2-2,2.8-2.5l0,0c0.5-0.4,1-0.6,1.5-0.8c0.3-1.5,1-2.9,2-4.1c1.2-1.5,3-2.8,5.2-3.9
	c2.3-3.2,5.2-5.3,8.4-6.4c3-1,6.3-1.1,9.9-0.3c1.2-1.7,2.6-2.9,4.3-3.8c2-1,4.2-1.4,6.7-1.3c2.7-0.8,5.4-1.1,8.1-1
	c2.5,0.2,5.1,0.8,7.7,1.8c5.3-2.6,10.3-3.8,14.9-3.4c4.6,0.4,8.9,2.3,12.7,5.7c2-0.3,3.8-0.3,5.5,0.1c1.8,0.4,3.3,1.2,4.6,2.4
	c1.7,0.2,3.2,0.7,4.6,1.6c1.4,0.9,2.7,2.2,3.9,3.8c2.1,0.9,3.9,2.1,5.3,3.4c1.2,1.2,2.2,2.5,2.9,3.9c2.3,0.3,4.4,1,6.3,2.1
	c2.1,1.2,3.9,2.9,5.4,4.9c3.5,1.7,6.1,3.9,7.8,6.7c1.5,2.4,2.3,5.2,2.3,8.4c2.4,0.7,4.3,1.9,5.7,3.7c1.5,1.9,2.4,4.4,2.7,7.4
	c2.5,1.3,4,3.3,4.6,6.1c0.6,2.7,0.2,6-1.1,10c1.2,1.6,2.1,3.3,2.9,5.2c0.8,2.1,1.4,4.3,1.6,6.7c0.9,3.9,0.4,7.6-1.5,11
	c0,1.6-0.1,3-0.2,4.2c-0.1,1.2-0.3,2.2-0.5,3c0.8,3.1,1.2,5.6,1.4,7.5c0.2,2,0,3.5-0.4,4.6c0,3.8-0.7,7.2-2.1,10.3
	c-1.3,2.9-3.3,5.5-5.9,7.7c0.1,3.4-0.2,6.2-1,8.4c-0.8,2.4-2.1,4.1-3.8,5.3c-1.3,5.8-4.4,8.7-9.1,8.6c-1.7,3.4-3.5,6.1-5.2,8l0,0
	c-2,2.1-4,3.4-6.1,3.8c-1.8,1.8-3.5,3-5.2,3.7c-1.7,0.7-3.3,0.9-4.9,0.6c-1.3,0.9-2.4,1.5-3.5,2c-0.8,0.3-1.5,0.5-2.2,0.5
	c-1,2.1-2.3,3.8-3.8,5c-1.8,1.5-3.9,2.3-6.3,2.6c-2,1.4-3.9,2.5-5.6,3.1c-1.9,0.7-3.6,1-5.1,0.7c-1.5,0.1-3,0-4.5-0.3
	c-1.1-0.2-2.2-0.5-3.2-0.9c-2.2,1.5-4.4,2.6-6.4,3.2c-2.3,0.7-4.5,0.8-6.6,0.3c-4.3,0.3-8,0-11.2-1.1c-3-1-5.5-2.6-7.5-4.8
	c-4,0.5-7.6,0.3-10.8-0.6c-3.4-1-6.4-2.8-8.9-5.3c-1.5-0.4-2.7-1-3.7-1.8c-0.8-0.7-1.5-1.4-2-2.3c-2.5-0.2-4.7-0.6-6.7-1.4
	c-2.3-0.9-4.2-2.1-5.8-3.7c-5.1-2.7-8.5-6.7-10-11.9c-3.2-1.2-5.6-2.7-7.2-4.5c-1.7-1.8-2.6-3.9-2.7-6.3c-2.2-1.6-3.9-3.9-5-6.9
	c-1.1-3.1-1.5-6.9-1.3-11.4c-1.6-1.6-2.8-3.2-3.6-4.9c-0.9-1.9-1.2-3.8-1.1-5.8c-0.6-1.3-0.8-2.7-0.7-4.2c0.1-1.3,0.5-2.6,1.2-3.9
	c-0.5-1.2-0.8-2.4-0.8-3.6c0-1.1,0.2-2.2,0.6-3.2c-1.2-1.5-2.1-3.1-2.6-4.9c-0.6-2.1-0.7-4.4-0.3-6.9c-0.3-3.3,0.1-6.3,1.1-9
	c0.9-2.5,2.3-4.7,4.2-6.6c-0.6-2.9-0.8-5.7-0.6-8.3c0.3-2.9,1.1-5.6,2.5-8c1.3-3.4,3-6.3,5.2-8.7c1.9-2.1,4.2-3.8,6.8-5.1
	c0-1.8,0.4-3.4,1.2-4.9c1-1.7,2.4-3.2,4.5-4.4c0.9-1.5,2.1-2.7,3.4-3.5C234.6,160.6,236,160.2,237.5,160.1L237.5,160.1z
	 M318.9,290.2c-2.5,0.6-4.6,1.8-6.4,3.7l-0.7,0.7l-1-0.1c-1.9-0.1-3.4,0-4.5,0.6c-0.9,0.4-1.5,1.1-1.8,2l-0.7,2.2l-2.1-1
	c-3.8-1.7-7.3-2.7-10.5-3c-3-0.2-5.8,0.2-8.2,1.3l-1.5,0.7l-1-1.2c-2.5-2.9-5.3-5-8.6-6.3c-3.3-1.3-7.1-1.8-11.4-1.5l-2,0.1l-0.3-2
	c-0.3-2.1-1.1-3.9-2.4-5.2c-1.3-1.3-3.3-2.3-5.8-2.9l-1.1-0.3l-0.4-1.1c-0.5-1.4-1.3-2.4-2.6-3.2c-1.4-0.9-3.2-1.4-5.4-1.6l-2.1-0.2
	l0.2-2.1c0.2-2.5-0.3-5.1-1.5-7.9c-1.3-2.9-3.4-5.9-6.3-9.1l-0.8-0.9l0.3-1.1c1.9-6.5,0.5-13.2-4.1-20.2l-0.9-1.4l1.2-1.2
	c1.6-1.6,2.5-3.3,2.8-5c0.3-1.7,0-3.4-0.8-5.3l-0.5-1l0.6-1c1.1-1.7,1.5-3.4,1.3-4.9c-0.2-1.5-1-3.1-2.4-4.6l-1.5-1.6l1.6-1.4
	c2.7-2.4,4.7-5,6-7.8c1.4-2.8,2.1-5.8,2.3-9.1l0.1-2l2,0c2.4,0,4.7-1.2,7-3.5c2.5-2.6,5-6.4,7.3-11.7l0.6-1.3l1.4,0
	c3.3,0.1,5.9-0.3,7.9-1.2c1.8-0.8,3.1-2.1,3.9-3.8l0.8-1.7l1.8,0.6c1.2,0.4,2.2,0.4,2.9,0c0.9-0.4,1.6-1.3,2.3-2.7l0.7-1.5l1.6,0.3
	c2.6,0.5,4.8,0.7,6.8,0.5c1.8-0.2,3.2-0.7,4.4-1.5l0.7-0.5l0.9,0.1c2.1,0.4,3.9,0.4,5.4,0.1c1.4-0.3,2.7-0.8,3.7-1.7l1-0.8l1.2,0.6
	c3.1,1.5,5.9,2.4,8.5,2.7c2.5,0.3,4.7,0.1,6.7-0.6l1.3-0.5l0.9,1c3,3.2,5.6,5.6,7.9,7c1.9,1.2,3.5,1.8,4.6,1.6l1.2-0.2l0.8,0.9
	c0.6,0.7,1.3,1.2,2.1,1.4c0.8,0.2,1.8,0.2,2.8,0l1.9-0.5l0.6,1.9c0.9,3,2.2,5.5,3.7,7.6c1.6,2,3.5,3.5,5.7,4.5l0.7,0.3l0.3,0.6
	c0.6,1.3,1.5,2.4,2.6,3.3c1.1,0.9,2.5,1.7,4.2,2.3l1.2,0.4l0.2,1.3c0.7,4.8,1.6,8.7,2.8,11.6c1.1,2.7,2.4,4.5,3.9,5.5l1.4,1
	l-0.7,1.6c-2.4,5.8-2.5,10.3-0.2,13.6l0.4,0.6l0,0.7c0,1.4,0.1,2.7,0.3,4c0.3,1.2,0.7,2.4,1.2,3.6l0.8,1.6l-1.4,1
	c-2.1,1.5-3.5,3.3-4.3,5.4c-0.8,2.1-1,4.5-0.5,7.2l0.2,0.9l-0.5,0.7c-0.6,0.8-1,1.9-1.1,3.3c-0.1,1.6,0.1,3.5,0.6,5.7l0.4,1.6
	l-1.4,0.8c-3.2,1.7-5.6,3.9-7.4,6.4c-1.7,2.5-2.8,5.4-3.1,8.8l-0.2,2l-2-0.2c-2.3-0.2-4.5,0.3-6.4,1.3c-2,1.1-3.7,2.9-5.3,5.3
	l-0.4,0.6l-0.7,0.2c-1,0.4-1.8,0.9-2.5,1.6l0,0c-0.7,0.7-1.3,1.6-1.7,2.6l-0.7,1.6l-1.7-0.4C324.6,289.6,321.5,289.6,318.9,290.2
	L318.9,290.2z M310.1,290.4c-2.2-0.1-4.1,0.3-5.6,1c-1.2,0.6-2.2,1.4-2.9,2.4c-3.6-1.4-6.9-2.3-10-2.5c-3.2-0.2-6.1,0.1-8.8,1.1
	c-2.7-2.9-5.8-5-9.3-6.4c-3.4-1.3-7.2-2-11.4-1.9c-0.6-2.2-1.6-4.1-3.2-5.7l0,0c-1.7-1.7-4-2.9-6.8-3.7c-0.8-1.8-2.1-3.2-3.8-4.3
	c-1.5-0.9-3.2-1.6-5.3-2c-0.1-2.6-0.7-5.3-1.9-8c-1.4-3-3.5-6.1-6.3-9.3c1.7-6.9,0.3-14-4.1-21.2c1.5-1.9,2.4-3.8,2.8-5.9
	c0.4-2.2,0.2-4.5-0.7-6.8c1.2-2.2,1.6-4.4,1.3-6.6c-0.2-1.9-1-3.7-2.2-5.4c2.3-2.4,4.2-4.9,5.5-7.7c1.4-2.8,2.2-5.8,2.6-9
	c2.8-0.5,5.5-2,8-4.6c2.7-2.7,5.2-6.6,7.6-11.7c3.3,0,6.1-0.6,8.3-1.6c2.2-1,3.9-2.4,5.2-4.3c1.6,0.3,3.1,0.1,4.4-0.6
	c1.3-0.7,2.5-1.8,3.5-3.3c2.4,0.4,4.6,0.5,6.5,0.3c2.1-0.2,4-0.8,5.6-1.8c2.2,0.3,4.2,0.3,6,0c1.7-0.3,3.2-0.9,4.5-1.7
	c3.1,1.4,5.9,2.2,8.6,2.6c2.6,0.3,5,0.2,7.3-0.4c2.9,3,5.5,5.2,7.8,6.7c2.4,1.5,4.5,2.3,6.4,2.3c1,0.9,2.1,1.5,3.3,1.9
	c1,0.3,2,0.4,3,0.3c1,2.8,2.3,5.2,3.9,7.2c1.8,2.3,4,4.1,6.6,5.4c0.9,1.5,2,2.8,3.4,4c1.2,1,2.6,1.9,4.3,2.6
	c0.7,4.6,1.7,8.4,2.9,11.4c1.1,2.8,2.5,4.9,4.1,6.4c-2.3,6.2-2.1,11.4,0.4,15.5c0,1.5,0.1,2.9,0.4,4.3c0.2,1,0.5,2.1,0.9,3
	c-2.1,1.8-3.5,3.8-4.4,6.2c-1,2.6-1.2,5.4-0.8,8.6c-0.8,1.3-1.2,2.9-1.4,4.7c-0.1,1.6,0,3.4,0.4,5.5c-3.1,1.9-5.6,4.2-7.4,6.9
	c-1.8,2.6-3,5.5-3.6,8.8c-2.4,0.1-4.7,0.7-6.7,1.9c-2.4,1.3-4.5,3.4-6.4,6.1c-1.3,0.6-2.4,1.3-3.3,2.3h0c-0.7,0.7-1.3,1.5-1.9,2.5
	c-3.5-0.6-6.6-0.5-9.4,0.1C314.9,286.8,312.3,288.3,310.1,290.4L310.1,290.4z M324.5,191.8c1.8,0,3.5,0.2,5.2,0.5l7.1-7.2l1.5,1.5
	l-6.2,6.3c1.4,0.4,2.8,1,4.2,1.7l5.1-3.9l1.3,1.7l-4.5,3.4c1.6,1.1,3.1,2.4,4.3,4l6.1-3.7l1.1,1.8l-5.9,3.5c0.7,1.1,1.4,2.3,1.8,3.4
	l3.3-1.4l0.8,1.9l-3.4,1.5c0.5,1.7,0.8,3.4,0.8,5.2l6.6-1.7l0.5,2l-7.2,1.9c-0.1,1.5-0.4,3-0.7,4.6l7.1-0.7l0.2,2.1l-7.9,0.8
	c-0.6,1.9-1.5,3.7-2.5,5.4h12.9v2.1h-12.4c0.4,1.1,0.8,2.2,1.1,3.3l10.1,1.2l-0.3,2.1l-9.3-1.1c0.4,1.6,0.6,3.3,0.7,5l6.7,1.6
	l-0.5,2l-6.2-1.5c0,1.5-0.2,3-0.5,4.5l6.8,2.7l-0.8,1.9l-6.6-2.6c-0.5,1.8-1.2,3.6-2.2,5.3l5.6,3.3l-1,1.8l-5.7-3.3
	c-0.2,0.3-0.4,0.6-0.6,0.9c-0.5,0.7-1.1,1.4-1.7,2.1l5.2,4.2l-1.3,1.6l-5.4-4.3c-1.4,1.2-2.8,2.3-4.4,3.2l5.9,6l-1.5,1.5l-6.3-6.5
	c-1.3,0.6-2.7,1.1-4,1.5l6.6,8.4l-1.6,1.3l-7.2-9.2c-1.7,0.3-3.5,0.5-5.3,0.6l6.5,11.5l-1.8,1l-6.2-10.9c-0.3,0.5-0.6,0.9-0.9,1.4
	c-0.4,0.6-0.9,1.2-1.3,1.8l3.7,9l-1.9,0.8l-3.3-8.1c-1.3,1.2-2.7,2.2-4.2,3.1l1.8,6.9l-2,0.5l-1.7-6.4c-1.3,0.6-2.6,1.1-3.9,1.5
	l1.1,7.8l-2.1,0.3l-1.1-7.5c-1.7,0.4-3.4,0.6-5.2,0.7l-0.1,7l-2.1,0l0.1-7l-0.4,0c-1.3-0.1-2.6-0.2-3.9-0.5l-1,7.4l-2.1-0.3l1-7.6
	c-1.7-0.5-3.4-1.1-4.9-1.9l-2.1,7l-2-0.6l2.2-7.5c-1.2-0.8-2.4-1.6-3.5-2.6l-3.9,9.5l-1.9-0.8l4.3-10.3c-1.1-1.1-2-2.3-2.9-3.6
	l-6.4,11.1l-1.8-1l7-12c-1.5,0-3-0.1-4.4-0.3l-7.3,9.5l-1.7-1.3l6.7-8.6c-1.7-0.4-3.4-0.9-4.9-1.6l-6.5,6.4l-1.5-1.5l6-5.8
	c-1.3-0.7-2.5-1.5-3.7-2.4l-5.6,4.1l-1.2-1.7l5.2-3.9c-0.8-0.8-1.5-1.6-2.2-2.5c-0.3-0.3-0.5-0.7-0.7-1l-5.7,3.3l-1-1.8l5.7-3.2
	c-0.8-1.5-1.5-3.1-2-4.8l-6.2,2.6l-0.8-1.9l6.5-2.7c-0.3-1.7-0.5-3.4-0.5-5.2l-6.9,1.9l-0.6-2l7.6-2.1c0.1-1.4,0.3-2.9,0.6-4.3
	l-8.5,1.2l-0.3-2.1l9.3-1.3c0.4-1.4,0.8-2.8,1.3-4.1l-10.9,0.1l0-2.1l11-0.1c-0.9-1.5-1.7-3.1-2.2-4.7l-8.1-0.8l0.2-2.1l7.2,0.7
	c-0.5-1.7-0.7-3.5-0.8-5.2l-7.3-1.9l0.5-2l6.7,1.8c0.1-1.5,0.3-3,0.7-4.5l-3.7-1.4l0.8-2l3.6,1.4c0.2-0.5,0.4-1,0.6-1.4
	c0.4-1,1-1.9,1.5-2.7l-5.9-3.5l1.1-1.8l6.1,3.6c1.1-1.4,2.5-2.5,3.9-3.5l-4.5-3.3l1.2-1.7l5.1,3.8c1.6-0.9,3.3-1.6,5.1-2.1l-7.7-7.6
	l1.5-1.5l8.7,8.5c1.4-0.3,2.8-0.4,4.2-0.5l-7.7-9.6l1.6-1.3l7.6,9.5c0.5-1.2,1.1-2.4,1.9-3.6c0.1-0.1,0.2-0.2,0.2-0.4l-6.5-11.1
	l1.8-1.1l6,10.4c1-1.1,2.1-2.1,3.3-3l-3.2-7.2l1.9-0.8l3,6.9c1.4-0.9,2.9-1.6,4.4-2.3l-2.3-8.6l2-0.6l2.3,8.4c1.3-0.4,2.6-0.8,4-1.1
	l-0.8-6.3l2.1-0.3l0.8,6.2c1.6-0.3,3.3-0.4,4.9-0.4l0-8.8l2.1,0l0,8.8c1.5,0.1,2.9,0.2,4.3,0.4l0.7-6.2l2.1,0.2l-0.7,6.4
	c1.6,0.3,3.2,0.8,4.7,1.4l2.5-8.8l2,0.6l-2.5,9c1.3,0.6,2.5,1.2,3.6,2l3-7.3l1.9,0.8l-3.2,7.8c1.3,1,2.6,2.2,3.7,3.5l5.6-9.7l1.8,1
	l-6,10.4c0.7,1,1.3,2.1,1.9,3.3l7.5-9.8l1.7,1.3L324.5,191.8L324.5,191.8z M353.7,256.2c-2.6,1.8-4.9,4-6.7,6.7
	c-1.7,2.4-2.8,5-3.6,7.8c-2,0.3-4,1-5.8,2c-2.8,1.6-5.1,3.8-6.9,6.4c-0.9,0.5-1.8,1-2.6,1.7H328l-0.8,0.8c-0.5,0.5-0.9,0.9-1.3,1.5
	c-2.9-0.3-5.9-0.2-8.7,0.4c-3.1,0.7-5.9,2.1-8.2,4.2c-2,0.1-3.9,0.4-5.7,1.3c-0.9,0.4-1.8,1-2.5,1.7c-2.9-1-5.9-1.8-9-2
	c-2.8-0.2-5.6,0-8.3,0.7c-2.6-2.5-5.6-4.4-9-5.8c-3.3-1.3-6.8-2-10.4-2.1c-0.7-1.8-1.8-3.5-3.2-4.9l0,0c-1.9-1.9-4.3-3.2-6.8-4.1
	c-1.1-1.7-2.5-3.2-4.2-4.3c-1.3-0.8-2.7-1.4-4.2-1.9c-0.3-2.4-1-4.7-2-6.9c-1.5-3.2-3.5-6.2-5.8-9c1.4-7.2-0.3-14-3.8-20.3
	c1.1-1.7,1.9-3.5,2.2-5.5c0.5-2.4,0.3-4.8-0.4-7.1c1-2.2,1.4-4.6,1.1-7.1c-0.2-1.7-0.7-3.2-1.5-4.7c1.8-2.1,3.3-4.3,4.5-6.8
	c1.2-2.5,2.1-5.2,2.6-7.9c2.9-0.9,5.4-2.7,7.5-4.8c3-3.1,5.4-7,7.4-10.9c2.6-0.2,5.3-0.7,7.7-1.8c2.1-0.9,3.9-2.2,5.3-3.9
	c1.5,0,3-0.3,4.3-1c1.4-0.7,2.5-1.6,3.5-2.8c1.8,0.2,3.7,0.2,5.5,0c2.1-0.2,4-0.8,5.9-1.7c2,0.2,4,0.2,6-0.2
	c1.5-0.3,2.9-0.7,4.2-1.4c2.6,1.1,5.3,1.9,8.1,2.2c2.3,0.3,4.5,0.3,6.8-0.1c2.2,2.2,4.6,4.4,7.2,6c2.1,1.3,4.4,2.4,6.8,2.6
	c1.1,0.8,2.3,1.4,3.6,1.8c0.6,0.2,1.3,0.3,1.9,0.4c0.9,2.2,2.1,4.3,3.6,6.2c1.9,2.4,4.1,4.3,6.8,5.8c1,1.5,2.2,2.9,3.6,4
	c1.1,0.9,2.3,1.7,3.5,2.3c0.6,3.6,1.5,7.2,2.8,10.5c0.9,2.1,2,4.2,3.5,6c-1.6,5.2-1.9,10.7,0.8,15.6c0,1.4,0.2,2.8,0.5,4.1
	c0.1,0.6,0.3,1.1,0.4,1.7c-1.6,1.7-3,3.7-3.8,6c-1.1,2.9-1.4,6-1.1,9c-0.8,1.6-1.2,3.3-1.3,5.1C353.4,253.3,353.5,254.7,353.7,256.2
	L353.7,256.2z M329.2,199.7l2.1,6.8l7.1-0.1l-5.8,4.1l2.3,6.8l-5.7-4.3l-5.7,4.3l2.3-6.8l-5.8-4.1l7.1,0.1L329.2,199.7L329.2,199.7z
	 M307.1,199.7l2.1,6.8l7.1-0.1l-5.8,4.1l2.3,6.8l-5.7-4.3l-5.7,4.3l2.3-6.8l-5.8-4.1l7.1,0.1L307.1,199.7L307.1,199.7z M296.4,254.4
	l2.1,6.8l7.1-0.1l-5.8,4.1l2.3,6.8l-5.7-4.3l-5.7,4.3l2.3-6.8l-5.8-4.1l7.1,0.1L296.4,254.4L296.4,254.4z M318.1,218.3l2.1,6.8
	l7.1-0.1l-5.8,4.1l2.3,6.8l-5.7-4.3l-5.7,4.3l2.3-6.8l-5.8-4.1l7.1,0.1L318.1,218.3L318.1,218.3z M329.3,236.3l2.1,6.8l7.1-0.1
	l-5.8,4.1l2.3,6.8l-5.7-4.3l-5.7,4.3l2.3-6.8l-5.8-4.1l7.1,0.1L329.3,236.3L329.3,236.3z M307.5,236.3l2.1,6.8l7.1-0.1l-5.8,4.1
	l2.3,6.8l-5.7-4.3l-5.7,4.3l2.3-6.8l-5.8-4.1l7.1,0.1L307.5,236.3L307.5,236.3z M285.7,236.3l2.1,6.8l7.1-0.1l-5.8,4.1l2.3,6.8
	l-5.7-4.3L280,254l2.3-6.8l-5.8-4.1l7.1,0.1L285.7,236.3L285.7,236.3z M263.9,236.3l2.1,6.8l7.1-0.1l-5.8,4.1l2.3,6.8l-5.7-4.3
	l-5.7,4.3l2.3-6.8l-5.8-4.1l7.1,0.1L263.9,236.3L263.9,236.3z M274,218.3l2.1,6.8l7.1-0.1l-5.8,4.1l2.3,6.8l-5.7-4.3l-5.7,4.3
	l2.3-6.8l-5.8-4.1l7.1,0.1L274,218.3L274,218.3z M296.4,218.3l2.1,6.8l7.1-0.1l-5.8,4.1l2.3,6.8l-5.7-4.3l-5.7,4.3l2.3-6.8l-5.8-4.1
	l7.1,0.1L296.4,218.3L296.4,218.3z M296.1,182l2.1,6.8l7.1-0.1l-5.8,4.1l2.3,6.8l-5.7-4.3l-5.7,4.3l2.3-6.8l-5.8-4.1l7.1,0.1
	L296.1,182L296.1,182z M263.5,199.7l2.1,6.8l7.1-0.1l-5.8,4.1l2.3,6.8l-5.7-4.3l-5.7,4.3l2.3-6.8l-5.8-4.1l7.1,0.1L263.5,199.7
	L263.5,199.7z M285.7,199.7l2.1,6.8l7.1-0.1l-5.8,4.1l2.3,6.8l-5.7-4.3l-5.7,4.3l2.3-6.8l-5.8-4.1l7.1,0.1L285.7,199.7L285.7,199.7z
	 M253.3,226.8c-10.1-13.9-3.4-33.1,18-32.1c3.8-20.6,43.7-23,50.3,0c18-1.8,29.6,14.5,18.3,31.9c9.7,19.1-1.7,37.6-22.3,36.6
	c-4.8,15.9-33.2,20-42.5-0.2C254,263.9,244.3,246.1,253.3,226.8L253.3,226.8z M440.3,284.3c-1.4,4.9-4.4,4.6-11.7,5.8
	c-13.6,2.4-26.9,8.5-39.3,15.3c-13.8,7.6-23.6,16.3-30.9,23.9c-2.9,3-5.4,7-7,12.5c-4-3.5-8.6-8-13.2-13.2c-0.7-1.6-1.4-4.3,0.5-6.8
	c21-27.5,67.8-50,100.1-53c2.1,0.1,3.8-0.5,5.1-1.7C444,273.1,442,278.4,440.3,284.3L440.3,284.3z M439.2,267.7c2.2,0,3.9-0.6,4-2
	c0-1.4-2.5-1.8-6.3-1.5c-8.5,1.3-14.7,0.1-18.6-3.6c0.2,3,0.4,6.5,0.5,10.7C426.3,269.3,433.1,268.1,439.2,267.7L439.2,267.7z
	 M463.8,253.1c1.9-8.8-7.9-12.6-6.9-25.3c-1.1,14.5-30.1,17.2-38.3,27.1c-3.7,4.4,4.9,9.8,17.5,8.3c6.9-1.1,9.9,1,8.9,6.4
	C453.8,263.3,460.1,257.7,463.8,253.1L463.8,253.1z M452.4,233.7c-1.2,1.3-2.8,2.5-4.6,3.6c-1.1-1.2-2.5-2.7-4.2-4.5
	c2.7-0.1,4.6-1.4,5.8-4C450.3,230.3,451.3,232,452.4,233.7L452.4,233.7z M453.7,232.1c-2-2.9-3.5-5.3-4.6-7.3
	c-1.1,5.3-3.5,7.4-7,6.4c-0.3-5.6,3.5-11.5,8.6-11.5C454.6,219.7,456.4,226,453.7,232.1L453.7,232.1z M368,346.5
	c1.1-7.4-3-10.9-12.4-10.2c-1.8,3.1-2.2,5.7-1.3,7.7C360.5,342.5,365,343.5,368,346.5L368,346.5z M354.1,391.4
	c-0.8,6.8-9.6,10.3-12.7,6.3c3.9-2.4,5.8-4.8,5.9-7.4c-0.1-8.2,0.1-13.2,0.7-15c1.1-7.7,11.8-14.2,21.1-27.5
	c1.5,7.2,0.8,12.4-0.2,15.3c-0.6,1.8-4.7,4.7-12.3,14.8C354.9,380.2,354.3,383.8,354.1,391.4L354.1,391.4z M334.2,384.7
	c0.9,4,3,8,6.2,11.8c3.8-1.3,5.7-3.9,5.5-7.8c-3.3-1.8-3.6-4.3-4.4-8.8c-0.4-2.5-4-4-8.3-5.7C334.5,379,334,382.4,334.2,384.7
	L334.2,384.7z M151.2,284.3c1.4,4.9,4.4,4.6,11.7,5.8c13.6,2.4,26.9,8.5,39.3,15.3c13.8,7.6,23.6,16.3,30.9,23.9c2.9,3,5.3,7,7,12.5
	c4-3.5,8.6-8,13.2-13.2c0.7-1.6,1.4-4.3-0.5-6.8c-21-27.5-67.8-50-100.1-53c-2.1,0.1-3.8-0.5-5.1-1.7
	C147.5,273.1,149.5,278.4,151.2,284.3L151.2,284.3z M152.3,267.7c-2.2,0-3.9-0.6-4-2c0-1.4,2.5-1.8,6.3-1.5
	c8.5,1.3,14.7,0.1,18.6-3.6c-0.2,3-0.4,6.5-0.5,10.7C165.2,269.3,158.4,268.1,152.3,267.7L152.3,267.7z M127.7,253.1
	c-1.9-8.8,7.9-12.6,6.9-25.3c1.1,14.5,30.1,17.2,38.3,27.1c3.7,4.4-4.9,9.8-17.5,8.3c-6.9-1.1-9.9,1-8.9,6.4
	C137.7,263.3,131.4,257.7,127.7,253.1L127.7,253.1z M139.1,233.7c1.2,1.3,2.8,2.5,4.6,3.6c1.1-1.2,2.5-2.7,4.2-4.5
	c-2.7-0.1-4.6-1.4-5.8-4C141.2,230.3,140.2,232,139.1,233.7L139.1,233.7z M137.8,232.1c2-2.9,3.5-5.3,4.6-7.3c1.1,5.3,3.5,7.4,7,6.4
	c0.3-5.6-3.5-11.5-8.6-11.5C136.9,219.7,135.1,226,137.8,232.1L137.8,232.1z M238.5,343.7c-6.2,0.7-12.4-1.3-13.5,1
	c-0.3-3.5,3.1-6.5,10.9-9.4C238.4,339.4,239.3,342.2,238.5,343.7L238.5,343.7z M240.3,370.5c2.8,1.4,4.6-0.5,5.5-5.6
	c-0.9-3.6-5-7.9-11.6-13.8c-0.8-1.6-1.1-3.7-1.1-6.2c-2.7,0-4.8,0-6.3,0c-1.7,1.1-1.9,3-0.6,5.7
	C230.5,358.5,233.1,357.4,240.3,370.5L240.3,370.5z M253.2,368.9c-1.1,2.2-4,3.1-8.8,2.7c5.6-7.6-1.5-9.2,7.4-24
	c0,4.3,1,8.1,2.2,10.7c0.9-2.6,3.1-4.3,3.9-4.8C256.4,359.8,254.8,364.9,253.2,368.9L253.2,368.9z M271,393.8
	c-0.7-0.6-1.9-2-3.5-4.1c-3.3-4.2-3.7-9.6-1.1-16.4c0.9-2.4,3-5.3,5.4-10c1.8-3.5,2-7.5,1.6-11.1c3.3,1.1,5.8,1.8,7.7,2.2
	c0.7,8-1.3,13.6-5.6,20.1c-1.4,2.2-1.3,4.8-0.6,6.8c0.7,2.2,2,4.1,3.1,5.9C273.9,390,271.6,392.2,271,393.8L271,393.8z M303.9,343.1
	l-0.2,0C303.6,343.1,303.7,343.1,303.9,343.1L303.9,343.1L303.9,343.1z M156,284.4l9.3,1.7l0.5-2.7l-0.9-0.2l-0.3,1.6l-4.4-0.8
	l0.8-4.6l2.7,0.5l-0.3,1.5l0.9,0.2l0.7-3.9l-0.9-0.2l-0.3,1.5l-2.7-0.5l0.7-3.7l4.3,0.8l-0.3,1.6l0.9,0.2l0.5-2.7l-9.2-1.7l-0.2,0.9
	l1.3,0.2l-1.7,9.6l-1.3-0.2L156,284.4L156,284.4z M171.9,288.3l0.3-0.9l1.3,0.4l3-9.2l-1.3-0.4l0.3-0.9l5.6,1.8
	c1.1,0.4,1.9,0.9,2.4,1.7c0.5,0.8,0.5,1.7,0.2,2.7c-0.3,1-0.9,1.7-1.7,2c-0.8,0.4-1.8,0.4-2.9,0l-1.8-0.6l-1.2,3.7l1.6,0.5l-0.3,0.9
	L171.9,288.3L171.9,288.3z M177.5,284.1l1.5-4.7l0.7,0.2c0.6,0.2,1,0.5,1.2,1.1c0.2,0.5,0.2,1.1,0,1.9c-0.2,0.7-0.6,1.2-1.1,1.5
	c-0.5,0.3-1,0.4-1.6,0.2L177.5,284.1L177.5,284.1z M181.3,291.6l0.3-0.9l1.2,0.5l3.6-9l-1.2-0.5l0.3-0.9l5,2l-0.3,0.9l-1.2-0.5
	l-3.5,8.9l3.8,1.5l0.7-1.7l0.9,0.4l-1.1,2.7L181.3,291.6L181.3,291.6z M195.4,286l-2.6,5.4c-0.8,1.6-1,2.9-0.7,3.9
	c0.3,1,1.2,1.8,2.6,2.5c1.5,0.7,2.7,0.9,3.6,0.5c0.9-0.4,1.8-1.4,2.6-3l2.6-5.4l1.2,0.6l0.4-0.8l-3.3-1.6l-0.4,0.8l1.2,0.6l-2.5,5.2
	c-0.6,1.3-1.2,2.1-1.8,2.5c-0.6,0.4-1.4,0.3-2.2-0.1c-0.9-0.4-1.4-1-1.5-1.7c-0.1-0.7,0.1-1.7,0.8-3l2.5-5.2l1.2,0.6l0.4-0.8
	l-4.8-2.3l-0.4,0.8L195.4,286L195.4,286z M209.3,298.8c0.3,0.3,0.5,0.6,0.7,0.9c0.1,0.3,0.2,0.8,0.1,1.3l-0.3,3.6l0.9,0.5l-0.5,0.8
	l-3-1.7l0.3-3.9c0.1-0.8,0.1-1.3,0-1.6c-0.1-0.3-0.3-0.5-0.7-0.7l-0.4-0.2l-2.1,3.7l1.2,0.7l-0.5,0.8l-4.6-2.7l0.5-0.8l1.2,0.7
	l4.9-8.4l-1.2-0.7l0.5-0.8l5.1,3c1,0.6,1.7,1.3,2,2.1c0.3,0.8,0.2,1.6-0.3,2.5c-0.4,0.7-0.9,1.1-1.6,1.3
	C210.9,299.2,210.2,299.1,209.3,298.8L209.3,298.8z M207,296.9l2.3-3.9l0.8,0.5c0.6,0.3,0.9,0.8,1,1.3c0.1,0.5,0,1.1-0.4,1.7
	c-0.4,0.6-0.8,1-1.3,1.2c-0.5,0.2-1,0.1-1.6-0.3L207,296.9L207,296.9z M211.2,306.5l0.5-0.8l1.1,0.8l5.5-8l-1.1-0.8l0.5-0.8l4.4,3
	l-0.5,0.8l-1.1-0.8l-5.5,8l1.1,0.8l-0.5,0.8L211.2,306.5L211.2,306.5z M216.5,310.3l0.6-0.7l1,0.8l6-7.6l-1-0.8l0.6-0.7l4.8,3.8
	c1,0.8,1.6,1.6,1.8,2.3c0.2,0.8,0,1.5-0.6,2.3c-0.4,0.5-0.9,0.8-1.5,0.9c-0.6,0-1.3-0.2-2-0.6c0.8,0.7,1.2,1.5,1.3,2.2
	c0.1,0.7-0.1,1.5-0.6,2.1c-0.7,0.9-1.5,1.3-2.5,1.3c-0.9-0.1-2.1-0.6-3.4-1.6L216.5,310.3L216.5,310.3z M223.9,307.5l2.4-3.1
	l0.7,0.6c0.6,0.5,1,1,1.1,1.5c0.1,0.5-0.1,1-0.5,1.5c-0.4,0.5-0.9,0.8-1.4,0.8c-0.5,0-1.1-0.2-1.7-0.7L223.9,307.5L223.9,307.5z
	 M220.3,312l3-3.8l0.8,0.6c0.7,0.5,1.1,1.1,1.2,1.7c0.1,0.6-0.1,1.2-0.6,1.9c-0.5,0.6-1.1,1-1.6,1c-0.6,0-1.2-0.2-1.9-0.8L220.3,312
	L220.3,312z M233.4,310l-1-0.9l0.6-0.7l3.9,3.6l-0.6,0.7l-1-0.9l-3.9,4.3c-1,1.1-1.5,1.9-1.6,2.6c-0.1,0.7,0.2,1.4,0.9,2
	c0.7,0.6,1.4,0.9,2.1,0.7c0.7-0.2,1.5-0.8,2.5-1.8l3.9-4.3l-1-0.9l0.6-0.7l2.7,2.5L241,317l-1-0.9l-4,4.4c-1.2,1.3-2.3,2-3.3,2.1
	c-1,0.1-2.1-0.4-3.3-1.5c-1.2-1.1-1.8-2.2-1.8-3.2c0-1,0.6-2.2,1.8-3.5L233.4,310L233.4,310z M234.7,324.7c0.3,0.7,0.6,1.3,1,1.9
	c0.4,0.6,0.8,1.1,1.3,1.6c1,1,1.9,1.6,2.9,1.7c0.9,0.1,1.8-0.3,2.7-1.1c0.7-0.7,1.1-1.4,1.2-2.1c0.1-0.7-0.1-1.5-0.6-2.4l-0.8-1.4
	c-0.5-0.9-0.7-1.5-0.7-1.8c0-0.3,0.2-0.7,0.5-1c0.4-0.4,0.8-0.5,1.2-0.4c0.4,0.1,0.9,0.4,1.4,0.8c0.6,0.6,0.9,1.2,0.9,1.8
	c0.1,0.6-0.2,1.2-0.6,1.9l0.6,0.6l1.8-1.8c-0.3-0.7-0.7-1.3-1.1-1.8s-0.8-1-1.2-1.5c-0.9-0.9-1.8-1.4-2.7-1.4
	c-0.9-0.1-1.8,0.3-2.6,1.1c-0.7,0.7-1.1,1.3-1.2,2c-0.1,0.7,0.1,1.5,0.6,2.4l0.8,1.4c0.4,0.7,0.6,1.3,0.6,1.6c0,0.4-0.2,0.7-0.5,1
	c-0.4,0.4-0.9,0.6-1.4,0.5c-0.5-0.1-1-0.3-1.5-0.9c-0.6-0.6-0.9-1.3-1-1.9c0-0.7,0.2-1.3,0.7-2l-0.6-0.6L234.7,324.7L234.7,324.7z
	 M355.7,312.3l-1,0.9l-0.6-0.7l4.1-3.5l0.6,0.7l-1,0.9l3.7,4.4c0.9,1.1,1.7,1.7,2.4,1.9c0.7,0.2,1.4,0,2.2-0.7c0.7-0.6,1.1-1.3,1-2
	c-0.1-0.7-0.6-1.6-1.5-2.7l-3.7-4.4l-1,0.9l-0.6-0.7l2.8-2.3l0.6,0.7l-1,0.9l3.8,4.6c1.1,1.4,1.7,2.5,1.6,3.6c0,1-0.7,2.1-1.9,3.1
	c-1.2,1-2.4,1.5-3.4,1.4c-1-0.1-2.1-0.9-3.2-2.2L355.7,312.3L355.7,312.3z M374.2,310.8l-0.5-0.8l1.1-0.8l-5.6-7.9l-1.1,0.8
	l-0.5-0.8l2.7-1.9l9.9,3l-4.2-5.9l-1.1,0.8l-0.5-0.8l3-2.1l0.5,0.8l-1.1,0.8l6.2,8.7l-1.5,1.1l-10.1-3.1l4.3,6l1.1-0.8l0.5,0.8
	L374.2,310.8L374.2,310.8z M384.1,291.9l-1.2,0.6l-0.4-0.8l4.8-2.5l0.4,0.8l-1.2,0.6l2.7,5.2c0.7,1.3,1.3,2.1,1.9,2.4
	c0.6,0.3,1.4,0.3,2.2-0.2c0.9-0.4,1.3-1,1.4-1.7c0.1-0.7-0.2-1.7-0.8-3l-2.7-5.2l-1.2,0.6l-0.4-0.8l3.2-1.7l0.4,0.8l-1.2,0.6
	l2.7,5.3c0.8,1.6,1.1,2.9,0.8,3.8c-0.3,1-1.1,1.8-2.6,2.6c-1.4,0.7-2.6,0.9-3.6,0.6c-1-0.4-1.8-1.3-2.7-2.9L384.1,291.9L384.1,291.9
	z M402.4,294.6l3.4-1.4l-0.4-0.9l-1.2,0.5l-3.4-8.2l6,6.2l1.6-0.7l-0.1-8.7l3.3,8.2l-1.2,0.5l0.4,0.9l5-2l-0.4-0.9l-1.2,0.5l-3.7-9
	l1.2-0.5l-0.4-0.9l-4,1.6l0.1,8l-5.6-5.8l-4,1.6l0.4,0.9l1.2-0.5l3.7,9l-1.2,0.5L402.4,294.6z"/>
</svg>
